<?xml version="1.0" standalone="yes"?><svg version="1.1" xmlns="http://www.w3.org/2000/svg" xmlns:xlink="http://www.w3.org/1999/xlink" xmlns:ev="http://www.w3.org/2001/xml-events" width="246" height="246" shape-rendering="crispEdges"><rect width="6" height="6" x="0" y="0" fill="#000"/><rect width="6" height="6" x="6" y="0" fill="#000"/><rect width="6" height="6" x="12" y="0" fill="#000"/><rect width="6" height="6" x="18" y="0" fill="#000"/><rect width="6" height="6" x="24" y="0" fill="#000"/><rect width="6" height="6" x="30" y="0" fill="#000"/><rect width="6" height="6" x="36" y="0" fill="#000"/><rect width="6" height="6" x="54" y="0" fill="#000"/><rect width="6" height="6" x="72" y="0" fill="#000"/><rect width="6" height="6" x="84" y="0" fill="#000"/><rect width="6" height="6" x="90" y="0" fill="#000"/><rect width="6" height="6" x="120" y="0" fill="#000"/><rect width="6" height="6" x="132" y="0" fill="#000"/><rect width="6" height="6" x="156" y="0" fill="#000"/><rect width="6" height="6" x="168" y="0" fill="#000"/><rect width="6" height="6" x="174" y="0" fill="#000"/><rect width="6" height="6" x="180" y="0" fill="#000"/><rect width="6" height="6" x="186" y="0" fill="#000"/><rect width="6" height="6" x="192" y="0" fill="#000"/><rect width="6" height="6" x="204" y="0" fill="#000"/><rect width="6" height="6" x="210" y="0" fill="#000"/><rect width="6" height="6" x="216" y="0" fill="#000"/><rect width="6" height="6" x="222" y="0" fill="#000"/><rect width="6" height="6" x="228" y="0" fill="#000"/><rect width="6" height="6" x="234" y="0" fill="#000"/><rect width="6" height="6" x="240" y="0" fill="#000"/><rect width="6" height="6" x="0" y="6" fill="#000"/><rect width="6" height="6" x="36" y="6" fill="#000"/><rect width="6" height="6" x="54" y="6" fill="#000"/><rect width="6" height="6" x="66" y="6" fill="#000"/><rect width="6" height="6" x="90" y="6" fill="#000"/><rect width="6" height="6" x="96" y="6" fill="#000"/><rect width="6" height="6" x="102" y="6" fill="#000"/><rect width="6" height="6" x="114" y="6" fill="#000"/><rect width="6" height="6" x="132" y="6" fill="#000"/><rect width="6" height="6" x="156" y="6" fill="#000"/><rect width="6" height="6" x="168" y="6" fill="#000"/><rect width="6" height="6" x="180" y="6" fill="#000"/><rect width="6" height="6" x="204" y="6" fill="#000"/><rect width="6" height="6" x="240" y="6" fill="#000"/><rect width="6" height="6" x="0" y="12" fill="#000"/><rect width="6" height="6" x="12" y="12" fill="#000"/><rect width="6" height="6" x="18" y="12" fill="#000"/><rect width="6" height="6" x="24" y="12" fill="#000"/><rect width="6" height="6" x="36" y="12" fill="#000"/><rect width="6" height="6" x="54" y="12" fill="#000"/><rect width="6" height="6" x="60" y="12" fill="#000"/><rect width="6" height="6" x="90" y="12" fill="#000"/><rect width="6" height="6" x="102" y="12" fill="#000"/><rect width="6" height="6" x="114" y="12" fill="#000"/><rect width="6" height="6" x="144" y="12" fill="#000"/><rect width="6" height="6" x="150" y="12" fill="#000"/><rect width="6" height="6" x="156" y="12" fill="#000"/><rect width="6" height="6" x="168" y="12" fill="#000"/><rect width="6" height="6" x="174" y="12" fill="#000"/><rect width="6" height="6" x="192" y="12" fill="#000"/><rect width="6" height="6" x="204" y="12" fill="#000"/><rect width="6" height="6" x="216" y="12" fill="#000"/><rect width="6" height="6" x="222" y="12" fill="#000"/><rect width="6" height="6" x="228" y="12" fill="#000"/><rect width="6" height="6" x="240" y="12" fill="#000"/><rect width="6" height="6" x="0" y="18" fill="#000"/><rect width="6" height="6" x="12" y="18" fill="#000"/><rect width="6" height="6" x="18" y="18" fill="#000"/><rect width="6" height="6" x="24" y="18" fill="#000"/><rect width="6" height="6" x="36" y="18" fill="#000"/><rect width="6" height="6" x="54" y="18" fill="#000"/><rect width="6" height="6" x="60" y="18" fill="#000"/><rect width="6" height="6" x="66" y="18" fill="#000"/><rect width="6" height="6" x="72" y="18" fill="#000"/><rect width="6" height="6" x="102" y="18" fill="#000"/><rect width="6" height="6" x="120" y="18" fill="#000"/><rect width="6" height="6" x="132" y="18" fill="#000"/><rect width="6" height="6" x="144" y="18" fill="#000"/><rect width="6" height="6" x="162" y="18" fill="#000"/><rect width="6" height="6" x="192" y="18" fill="#000"/><rect width="6" height="6" x="204" y="18" fill="#000"/><rect width="6" height="6" x="216" y="18" fill="#000"/><rect width="6" height="6" x="222" y="18" fill="#000"/><rect width="6" height="6" x="228" y="18" fill="#000"/><rect width="6" height="6" x="240" y="18" fill="#000"/><rect width="6" height="6" x="0" y="24" fill="#000"/><rect width="6" height="6" x="12" y="24" fill="#000"/><rect width="6" height="6" x="18" y="24" fill="#000"/><rect width="6" height="6" x="24" y="24" fill="#000"/><rect width="6" height="6" x="36" y="24" fill="#000"/><rect width="6" height="6" x="48" y="24" fill="#000"/><rect width="6" height="6" x="84" y="24" fill="#000"/><rect width="6" height="6" x="114" y="24" fill="#000"/><rect width="6" height="6" x="126" y="24" fill="#000"/><rect width="6" height="6" x="144" y="24" fill="#000"/><rect width="6" height="6" x="150" y="24" fill="#000"/><rect width="6" height="6" x="162" y="24" fill="#000"/><rect width="6" height="6" x="174" y="24" fill="#000"/><rect width="6" height="6" x="186" y="24" fill="#000"/><rect width="6" height="6" x="204" y="24" fill="#000"/><rect width="6" height="6" x="216" y="24" fill="#000"/><rect width="6" height="6" x="222" y="24" fill="#000"/><rect width="6" height="6" x="228" y="24" fill="#000"/><rect width="6" height="6" x="240" y="24" fill="#000"/><rect width="6" height="6" x="0" y="30" fill="#000"/><rect width="6" height="6" x="36" y="30" fill="#000"/><rect width="6" height="6" x="54" y="30" fill="#000"/><rect width="6" height="6" x="66" y="30" fill="#000"/><rect width="6" height="6" x="72" y="30" fill="#000"/><rect width="6" height="6" x="78" y="30" fill="#000"/><rect width="6" height="6" x="84" y="30" fill="#000"/><rect width="6" height="6" x="96" y="30" fill="#000"/><rect width="6" height="6" x="102" y="30" fill="#000"/><rect width="6" height="6" x="108" y="30" fill="#000"/><rect width="6" height="6" x="114" y="30" fill="#000"/><rect width="6" height="6" x="120" y="30" fill="#000"/><rect width="6" height="6" x="174" y="30" fill="#000"/><rect width="6" height="6" x="186" y="30" fill="#000"/><rect width="6" height="6" x="192" y="30" fill="#000"/><rect width="6" height="6" x="204" y="30" fill="#000"/><rect width="6" height="6" x="240" y="30" fill="#000"/><rect width="6" height="6" x="0" y="36" fill="#000"/><rect width="6" height="6" x="6" y="36" fill="#000"/><rect width="6" height="6" x="12" y="36" fill="#000"/><rect width="6" height="6" x="18" y="36" fill="#000"/><rect width="6" height="6" x="24" y="36" fill="#000"/><rect width="6" height="6" x="30" y="36" fill="#000"/><rect width="6" height="6" x="36" y="36" fill="#000"/><rect width="6" height="6" x="48" y="36" fill="#000"/><rect width="6" height="6" x="60" y="36" fill="#000"/><rect width="6" height="6" x="72" y="36" fill="#000"/><rect width="6" height="6" x="84" y="36" fill="#000"/><rect width="6" height="6" x="96" y="36" fill="#000"/><rect width="6" height="6" x="108" y="36" fill="#000"/><rect width="6" height="6" x="120" y="36" fill="#000"/><rect width="6" height="6" x="132" y="36" fill="#000"/><rect width="6" height="6" x="144" y="36" fill="#000"/><rect width="6" height="6" x="156" y="36" fill="#000"/><rect width="6" height="6" x="168" y="36" fill="#000"/><rect width="6" height="6" x="180" y="36" fill="#000"/><rect width="6" height="6" x="192" y="36" fill="#000"/><rect width="6" height="6" x="204" y="36" fill="#000"/><rect width="6" height="6" x="210" y="36" fill="#000"/><rect width="6" height="6" x="216" y="36" fill="#000"/><rect width="6" height="6" x="222" y="36" fill="#000"/><rect width="6" height="6" x="228" y="36" fill="#000"/><rect width="6" height="6" x="234" y="36" fill="#000"/><rect width="6" height="6" x="240" y="36" fill="#000"/><rect width="6" height="6" x="48" y="42" fill="#000"/><rect width="6" height="6" x="54" y="42" fill="#000"/><rect width="6" height="6" x="60" y="42" fill="#000"/><rect width="6" height="6" x="66" y="42" fill="#000"/><rect width="6" height="6" x="72" y="42" fill="#000"/><rect width="6" height="6" x="102" y="42" fill="#000"/><rect width="6" height="6" x="108" y="42" fill="#000"/><rect width="6" height="6" x="126" y="42" fill="#000"/><rect width="6" height="6" x="156" y="42" fill="#000"/><rect width="6" height="6" x="174" y="42" fill="#000"/><rect width="6" height="6" x="192" y="42" fill="#000"/><rect width="6" height="6" x="12" y="48" fill="#000"/><rect width="6" height="6" x="18" y="48" fill="#000"/><rect width="6" height="6" x="36" y="48" fill="#000"/><rect width="6" height="6" x="42" y="48" fill="#000"/><rect width="6" height="6" x="48" y="48" fill="#000"/><rect width="6" height="6" x="60" y="48" fill="#000"/><rect width="6" height="6" x="66" y="48" fill="#000"/><rect width="6" height="6" x="78" y="48" fill="#000"/><rect width="6" height="6" x="96" y="48" fill="#000"/><rect width="6" height="6" x="108" y="48" fill="#000"/><rect width="6" height="6" x="132" y="48" fill="#000"/><rect width="6" height="6" x="138" y="48" fill="#000"/><rect width="6" height="6" x="144" y="48" fill="#000"/><rect width="6" height="6" x="174" y="48" fill="#000"/><rect width="6" height="6" x="186" y="48" fill="#000"/><rect width="6" height="6" x="192" y="48" fill="#000"/><rect width="6" height="6" x="198" y="48" fill="#000"/><rect width="6" height="6" x="204" y="48" fill="#000"/><rect width="6" height="6" x="216" y="48" fill="#000"/><rect width="6" height="6" x="18" y="54" fill="#000"/><rect width="6" height="6" x="30" y="54" fill="#000"/><rect width="6" height="6" x="42" y="54" fill="#000"/><rect width="6" height="6" x="48" y="54" fill="#000"/><rect width="6" height="6" x="66" y="54" fill="#000"/><rect width="6" height="6" x="78" y="54" fill="#000"/><rect width="6" height="6" x="102" y="54" fill="#000"/><rect width="6" height="6" x="108" y="54" fill="#000"/><rect width="6" height="6" x="120" y="54" fill="#000"/><rect width="6" height="6" x="132" y="54" fill="#000"/><rect width="6" height="6" x="144" y="54" fill="#000"/><rect width="6" height="6" x="150" y="54" fill="#000"/><rect width="6" height="6" x="186" y="54" fill="#000"/><rect width="6" height="6" x="198" y="54" fill="#000"/><rect width="6" height="6" x="204" y="54" fill="#000"/><rect width="6" height="6" x="216" y="54" fill="#000"/><rect width="6" height="6" x="228" y="54" fill="#000"/><rect width="6" height="6" x="234" y="54" fill="#000"/><rect width="6" height="6" x="240" y="54" fill="#000"/><rect width="6" height="6" x="12" y="60" fill="#000"/><rect width="6" height="6" x="24" y="60" fill="#000"/><rect width="6" height="6" x="30" y="60" fill="#000"/><rect width="6" height="6" x="36" y="60" fill="#000"/><rect width="6" height="6" x="42" y="60" fill="#000"/><rect width="6" height="6" x="48" y="60" fill="#000"/><rect width="6" height="6" x="54" y="60" fill="#000"/><rect width="6" height="6" x="60" y="60" fill="#000"/><rect width="6" height="6" x="66" y="60" fill="#000"/><rect width="6" height="6" x="72" y="60" fill="#000"/><rect width="6" height="6" x="96" y="60" fill="#000"/><rect width="6" height="6" x="102" y="60" fill="#000"/><rect width="6" height="6" x="114" y="60" fill="#000"/><rect width="6" height="6" x="138" y="60" fill="#000"/><rect width="6" height="6" x="144" y="60" fill="#000"/><rect width="6" height="6" x="150" y="60" fill="#000"/><rect width="6" height="6" x="174" y="60" fill="#000"/><rect width="6" height="6" x="210" y="60" fill="#000"/><rect width="6" height="6" x="228" y="60" fill="#000"/><rect width="6" height="6" x="234" y="60" fill="#000"/><rect width="6" height="6" x="12" y="66" fill="#000"/><rect width="6" height="6" x="42" y="66" fill="#000"/><rect width="6" height="6" x="60" y="66" fill="#000"/><rect width="6" height="6" x="66" y="66" fill="#000"/><rect width="6" height="6" x="84" y="66" fill="#000"/><rect width="6" height="6" x="96" y="66" fill="#000"/><rect width="6" height="6" x="114" y="66" fill="#000"/><rect width="6" height="6" x="120" y="66" fill="#000"/><rect width="6" height="6" x="144" y="66" fill="#000"/><rect width="6" height="6" x="156" y="66" fill="#000"/><rect width="6" height="6" x="162" y="66" fill="#000"/><rect width="6" height="6" x="186" y="66" fill="#000"/><rect width="6" height="6" x="210" y="66" fill="#000"/><rect width="6" height="6" x="234" y="66" fill="#000"/><rect width="6" height="6" x="240" y="66" fill="#000"/><rect width="6" height="6" x="6" y="72" fill="#000"/><rect width="6" height="6" x="18" y="72" fill="#000"/><rect width="6" height="6" x="24" y="72" fill="#000"/><rect width="6" height="6" x="30" y="72" fill="#000"/><rect width="6" height="6" x="36" y="72" fill="#000"/><rect width="6" height="6" x="42" y="72" fill="#000"/><rect width="6" height="6" x="54" y="72" fill="#000"/><rect width="6" height="6" x="60" y="72" fill="#000"/><rect width="6" height="6" x="66" y="72" fill="#000"/><rect width="6" height="6" x="84" y="72" fill="#000"/><rect width="6" height="6" x="90" y="72" fill="#000"/><rect width="6" height="6" x="96" y="72" fill="#000"/><rect width="6" height="6" x="102" y="72" fill="#000"/><rect width="6" height="6" x="114" y="72" fill="#000"/><rect width="6" height="6" x="120" y="72" fill="#000"/><rect width="6" height="6" x="126" y="72" fill="#000"/><rect width="6" height="6" x="132" y="72" fill="#000"/><rect width="6" height="6" x="150" y="72" fill="#000"/><rect width="6" height="6" x="156" y="72" fill="#000"/><rect width="6" height="6" x="174" y="72" fill="#000"/><rect width="6" height="6" x="192" y="72" fill="#000"/><rect width="6" height="6" x="198" y="72" fill="#000"/><rect width="6" height="6" x="210" y="72" fill="#000"/><rect width="6" height="6" x="222" y="72" fill="#000"/><rect width="6" height="6" x="228" y="72" fill="#000"/><rect width="6" height="6" x="234" y="72" fill="#000"/><rect width="6" height="6" x="240" y="72" fill="#000"/><rect width="6" height="6" x="12" y="78" fill="#000"/><rect width="6" height="6" x="24" y="78" fill="#000"/><rect width="6" height="6" x="30" y="78" fill="#000"/><rect width="6" height="6" x="42" y="78" fill="#000"/><rect width="6" height="6" x="48" y="78" fill="#000"/><rect width="6" height="6" x="60" y="78" fill="#000"/><rect width="6" height="6" x="72" y="78" fill="#000"/><rect width="6" height="6" x="96" y="78" fill="#000"/><rect width="6" height="6" x="102" y="78" fill="#000"/><rect width="6" height="6" x="108" y="78" fill="#000"/><rect width="6" height="6" x="114" y="78" fill="#000"/><rect width="6" height="6" x="120" y="78" fill="#000"/><rect width="6" height="6" x="126" y="78" fill="#000"/><rect width="6" height="6" x="132" y="78" fill="#000"/><rect width="6" height="6" x="138" y="78" fill="#000"/><rect width="6" height="6" x="150" y="78" fill="#000"/><rect width="6" height="6" x="156" y="78" fill="#000"/><rect width="6" height="6" x="168" y="78" fill="#000"/><rect width="6" height="6" x="192" y="78" fill="#000"/><rect width="6" height="6" x="198" y="78" fill="#000"/><rect width="6" height="6" x="204" y="78" fill="#000"/><rect width="6" height="6" x="210" y="78" fill="#000"/><rect width="6" height="6" x="228" y="78" fill="#000"/><rect width="6" height="6" x="234" y="78" fill="#000"/><rect width="6" height="6" x="240" y="78" fill="#000"/><rect width="6" height="6" x="6" y="84" fill="#000"/><rect width="6" height="6" x="12" y="84" fill="#000"/><rect width="6" height="6" x="24" y="84" fill="#000"/><rect width="6" height="6" x="30" y="84" fill="#000"/><rect width="6" height="6" x="36" y="84" fill="#000"/><rect width="6" height="6" x="78" y="84" fill="#000"/><rect width="6" height="6" x="84" y="84" fill="#000"/><rect width="6" height="6" x="90" y="84" fill="#000"/><rect width="6" height="6" x="114" y="84" fill="#000"/><rect width="6" height="6" x="132" y="84" fill="#000"/><rect width="6" height="6" x="144" y="84" fill="#000"/><rect width="6" height="6" x="150" y="84" fill="#000"/><rect width="6" height="6" x="162" y="84" fill="#000"/><rect width="6" height="6" x="168" y="84" fill="#000"/><rect width="6" height="6" x="186" y="84" fill="#000"/><rect width="6" height="6" x="192" y="84" fill="#000"/><rect width="6" height="6" x="234" y="84" fill="#000"/><rect width="6" height="6" x="240" y="84" fill="#000"/><rect width="6" height="6" x="0" y="90" fill="#000"/><rect width="6" height="6" x="12" y="90" fill="#000"/><rect width="6" height="6" x="18" y="90" fill="#000"/><rect width="6" height="6" x="42" y="90" fill="#000"/><rect width="6" height="6" x="66" y="90" fill="#000"/><rect width="6" height="6" x="72" y="90" fill="#000"/><rect width="6" height="6" x="78" y="90" fill="#000"/><rect width="6" height="6" x="84" y="90" fill="#000"/><rect width="6" height="6" x="90" y="90" fill="#000"/><rect width="6" height="6" x="96" y="90" fill="#000"/><rect width="6" height="6" x="102" y="90" fill="#000"/><rect width="6" height="6" x="132" y="90" fill="#000"/><rect width="6" height="6" x="138" y="90" fill="#000"/><rect width="6" height="6" x="156" y="90" fill="#000"/><rect width="6" height="6" x="168" y="90" fill="#000"/><rect width="6" height="6" x="198" y="90" fill="#000"/><rect width="6" height="6" x="204" y="90" fill="#000"/><rect width="6" height="6" x="216" y="90" fill="#000"/><rect width="6" height="6" x="0" y="96" fill="#000"/><rect width="6" height="6" x="36" y="96" fill="#000"/><rect width="6" height="6" x="54" y="96" fill="#000"/><rect width="6" height="6" x="72" y="96" fill="#000"/><rect width="6" height="6" x="78" y="96" fill="#000"/><rect width="6" height="6" x="84" y="96" fill="#000"/><rect width="6" height="6" x="96" y="96" fill="#000"/><rect width="6" height="6" x="114" y="96" fill="#000"/><rect width="6" height="6" x="120" y="96" fill="#000"/><rect width="6" height="6" x="138" y="96" fill="#000"/><rect width="6" height="6" x="144" y="96" fill="#000"/><rect width="6" height="6" x="156" y="96" fill="#000"/><rect width="6" height="6" x="162" y="96" fill="#000"/><rect width="6" height="6" x="180" y="96" fill="#000"/><rect width="6" height="6" x="192" y="96" fill="#000"/><rect width="6" height="6" x="216" y="96" fill="#000"/><rect width="6" height="6" x="222" y="96" fill="#000"/><rect width="6" height="6" x="234" y="96" fill="#000"/><rect width="6" height="6" x="6" y="102" fill="#000"/><rect width="6" height="6" x="12" y="102" fill="#000"/><rect width="6" height="6" x="30" y="102" fill="#000"/><rect width="6" height="6" x="42" y="102" fill="#000"/><rect width="6" height="6" x="60" y="102" fill="#000"/><rect width="6" height="6" x="72" y="102" fill="#000"/><rect width="6" height="6" x="78" y="102" fill="#000"/><rect width="6" height="6" x="90" y="102" fill="#000"/><rect width="6" height="6" x="96" y="102" fill="#000"/><rect width="6" height="6" x="102" y="102" fill="#000"/><rect width="6" height="6" x="108" y="102" fill="#000"/><rect width="6" height="6" x="162" y="102" fill="#000"/><rect width="6" height="6" x="180" y="102" fill="#000"/><rect width="6" height="6" x="192" y="102" fill="#000"/><rect width="6" height="6" x="234" y="102" fill="#000"/><rect width="6" height="6" x="12" y="108" fill="#000"/><rect width="6" height="6" x="30" y="108" fill="#000"/><rect width="6" height="6" x="36" y="108" fill="#000"/><rect width="6" height="6" x="48" y="108" fill="#000"/><rect width="6" height="6" x="66" y="108" fill="#000"/><rect width="6" height="6" x="72" y="108" fill="#000"/><rect width="6" height="6" x="90" y="108" fill="#000"/><rect width="6" height="6" x="96" y="108" fill="#000"/><rect width="6" height="6" x="108" y="108" fill="#000"/><rect width="6" height="6" x="114" y="108" fill="#000"/><rect width="6" height="6" x="132" y="108" fill="#000"/><rect width="6" height="6" x="138" y="108" fill="#000"/><rect width="6" height="6" x="144" y="108" fill="#000"/><rect width="6" height="6" x="162" y="108" fill="#000"/><rect width="6" height="6" x="180" y="108" fill="#000"/><rect width="6" height="6" x="192" y="108" fill="#000"/><rect width="6" height="6" x="198" y="108" fill="#000"/><rect width="6" height="6" x="216" y="108" fill="#000"/><rect width="6" height="6" x="228" y="108" fill="#000"/><rect width="6" height="6" x="234" y="108" fill="#000"/><rect width="6" height="6" x="0" y="114" fill="#000"/><rect width="6" height="6" x="12" y="114" fill="#000"/><rect width="6" height="6" x="18" y="114" fill="#000"/><rect width="6" height="6" x="30" y="114" fill="#000"/><rect width="6" height="6" x="54" y="114" fill="#000"/><rect width="6" height="6" x="60" y="114" fill="#000"/><rect width="6" height="6" x="66" y="114" fill="#000"/><rect width="6" height="6" x="84" y="114" fill="#000"/><rect width="6" height="6" x="108" y="114" fill="#000"/><rect width="6" height="6" x="138" y="114" fill="#000"/><rect width="6" height="6" x="156" y="114" fill="#000"/><rect width="6" height="6" x="162" y="114" fill="#000"/><rect width="6" height="6" x="174" y="114" fill="#000"/><rect width="6" height="6" x="180" y="114" fill="#000"/><rect width="6" height="6" x="210" y="114" fill="#000"/><rect width="6" height="6" x="222" y="114" fill="#000"/><rect width="6" height="6" x="228" y="114" fill="#000"/><rect width="6" height="6" x="240" y="114" fill="#000"/><rect width="6" height="6" x="12" y="120" fill="#000"/><rect width="6" height="6" x="18" y="120" fill="#000"/><rect width="6" height="6" x="24" y="120" fill="#000"/><rect width="6" height="6" x="36" y="120" fill="#000"/><rect width="6" height="6" x="42" y="120" fill="#000"/><rect width="6" height="6" x="54" y="120" fill="#000"/><rect width="6" height="6" x="66" y="120" fill="#000"/><rect width="6" height="6" x="72" y="120" fill="#000"/><rect width="6" height="6" x="84" y="120" fill="#000"/><rect width="6" height="6" x="102" y="120" fill="#000"/><rect width="6" height="6" x="108" y="120" fill="#000"/><rect width="6" height="6" x="114" y="120" fill="#000"/><rect width="6" height="6" x="126" y="120" fill="#000"/><rect width="6" height="6" x="132" y="120" fill="#000"/><rect width="6" height="6" x="144" y="120" fill="#000"/><rect width="6" height="6" x="150" y="120" fill="#000"/><rect width="6" height="6" x="156" y="120" fill="#000"/><rect width="6" height="6" x="186" y="120" fill="#000"/><rect width="6" height="6" x="204" y="120" fill="#000"/><rect width="6" height="6" x="210" y="120" fill="#000"/><rect width="6" height="6" x="216" y="120" fill="#000"/><rect width="6" height="6" x="222" y="120" fill="#000"/><rect width="6" height="6" x="228" y="120" fill="#000"/><rect width="6" height="6" x="234" y="120" fill="#000"/><rect width="6" height="6" x="12" y="126" fill="#000"/><rect width="6" height="6" x="42" y="126" fill="#000"/><rect width="6" height="6" x="54" y="126" fill="#000"/><rect width="6" height="6" x="60" y="126" fill="#000"/><rect width="6" height="6" x="72" y="126" fill="#000"/><rect width="6" height="6" x="78" y="126" fill="#000"/><rect width="6" height="6" x="84" y="126" fill="#000"/><rect width="6" height="6" x="90" y="126" fill="#000"/><rect width="6" height="6" x="96" y="126" fill="#000"/><rect width="6" height="6" x="108" y="126" fill="#000"/><rect width="6" height="6" x="114" y="126" fill="#000"/><rect width="6" height="6" x="132" y="126" fill="#000"/><rect width="6" height="6" x="138" y="126" fill="#000"/><rect width="6" height="6" x="156" y="126" fill="#000"/><rect width="6" height="6" x="186" y="126" fill="#000"/><rect width="6" height="6" x="192" y="126" fill="#000"/><rect width="6" height="6" x="204" y="126" fill="#000"/><rect width="6" height="6" x="216" y="126" fill="#000"/><rect width="6" height="6" x="222" y="126" fill="#000"/><rect width="6" height="6" x="228" y="126" fill="#000"/><rect width="6" height="6" x="234" y="126" fill="#000"/><rect width="6" height="6" x="240" y="126" fill="#000"/><rect width="6" height="6" x="0" y="132" fill="#000"/><rect width="6" height="6" x="6" y="132" fill="#000"/><rect width="6" height="6" x="12" y="132" fill="#000"/><rect width="6" height="6" x="18" y="132" fill="#000"/><rect width="6" height="6" x="24" y="132" fill="#000"/><rect width="6" height="6" x="30" y="132" fill="#000"/><rect width="6" height="6" x="36" y="132" fill="#000"/><rect width="6" height="6" x="42" y="132" fill="#000"/><rect width="6" height="6" x="48" y="132" fill="#000"/><rect width="6" height="6" x="66" y="132" fill="#000"/><rect width="6" height="6" x="72" y="132" fill="#000"/><rect width="6" height="6" x="84" y="132" fill="#000"/><rect width="6" height="6" x="102" y="132" fill="#000"/><rect width="6" height="6" x="108" y="132" fill="#000"/><rect width="6" height="6" x="126" y="132" fill="#000"/><rect width="6" height="6" x="138" y="132" fill="#000"/><rect width="6" height="6" x="144" y="132" fill="#000"/><rect width="6" height="6" x="150" y="132" fill="#000"/><rect width="6" height="6" x="180" y="132" fill="#000"/><rect width="6" height="6" x="198" y="132" fill="#000"/><rect width="6" height="6" x="204" y="132" fill="#000"/><rect width="6" height="6" x="216" y="132" fill="#000"/><rect width="6" height="6" x="222" y="132" fill="#000"/><rect width="6" height="6" x="234" y="132" fill="#000"/><rect width="6" height="6" x="12" y="138" fill="#000"/><rect width="6" height="6" x="30" y="138" fill="#000"/><rect width="6" height="6" x="60" y="138" fill="#000"/><rect width="6" height="6" x="78" y="138" fill="#000"/><rect width="6" height="6" x="84" y="138" fill="#000"/><rect width="6" height="6" x="96" y="138" fill="#000"/><rect width="6" height="6" x="120" y="138" fill="#000"/><rect width="6" height="6" x="126" y="138" fill="#000"/><rect width="6" height="6" x="132" y="138" fill="#000"/><rect width="6" height="6" x="138" y="138" fill="#000"/><rect width="6" height="6" x="144" y="138" fill="#000"/><rect width="6" height="6" x="150" y="138" fill="#000"/><rect width="6" height="6" x="162" y="138" fill="#000"/><rect width="6" height="6" x="180" y="138" fill="#000"/><rect width="6" height="6" x="192" y="138" fill="#000"/><rect width="6" height="6" x="198" y="138" fill="#000"/><rect width="6" height="6" x="0" y="144" fill="#000"/><rect width="6" height="6" x="18" y="144" fill="#000"/><rect width="6" height="6" x="30" y="144" fill="#000"/><rect width="6" height="6" x="36" y="144" fill="#000"/><rect width="6" height="6" x="48" y="144" fill="#000"/><rect width="6" height="6" x="54" y="144" fill="#000"/><rect width="6" height="6" x="78" y="144" fill="#000"/><rect width="6" height="6" x="84" y="144" fill="#000"/><rect width="6" height="6" x="108" y="144" fill="#000"/><rect width="6" height="6" x="114" y="144" fill="#000"/><rect width="6" height="6" x="120" y="144" fill="#000"/><rect width="6" height="6" x="138" y="144" fill="#000"/><rect width="6" height="6" x="144" y="144" fill="#000"/><rect width="6" height="6" x="156" y="144" fill="#000"/><rect width="6" height="6" x="162" y="144" fill="#000"/><rect width="6" height="6" x="174" y="144" fill="#000"/><rect width="6" height="6" x="180" y="144" fill="#000"/><rect width="6" height="6" x="186" y="144" fill="#000"/><rect width="6" height="6" x="192" y="144" fill="#000"/><rect width="6" height="6" x="210" y="144" fill="#000"/><rect width="6" height="6" x="228" y="144" fill="#000"/><rect width="6" height="6" x="234" y="144" fill="#000"/><rect width="6" height="6" x="18" y="150" fill="#000"/><rect width="6" height="6" x="24" y="150" fill="#000"/><rect width="6" height="6" x="42" y="150" fill="#000"/><rect width="6" height="6" x="48" y="150" fill="#000"/><rect width="6" height="6" x="66" y="150" fill="#000"/><rect width="6" height="6" x="84" y="150" fill="#000"/><rect width="6" height="6" x="90" y="150" fill="#000"/><rect width="6" height="6" x="96" y="150" fill="#000"/><rect width="6" height="6" x="126" y="150" fill="#000"/><rect width="6" height="6" x="138" y="150" fill="#000"/><rect width="6" height="6" x="144" y="150" fill="#000"/><rect width="6" height="6" x="150" y="150" fill="#000"/><rect width="6" height="6" x="162" y="150" fill="#000"/><rect width="6" height="6" x="186" y="150" fill="#000"/><rect width="6" height="6" x="192" y="150" fill="#000"/><rect width="6" height="6" x="198" y="150" fill="#000"/><rect width="6" height="6" x="204" y="150" fill="#000"/><rect width="6" height="6" x="222" y="150" fill="#000"/><rect width="6" height="6" x="228" y="150" fill="#000"/><rect width="6" height="6" x="240" y="150" fill="#000"/><rect width="6" height="6" x="30" y="156" fill="#000"/><rect width="6" height="6" x="36" y="156" fill="#000"/><rect width="6" height="6" x="54" y="156" fill="#000"/><rect width="6" height="6" x="60" y="156" fill="#000"/><rect width="6" height="6" x="72" y="156" fill="#000"/><rect width="6" height="6" x="78" y="156" fill="#000"/><rect width="6" height="6" x="84" y="156" fill="#000"/><rect width="6" height="6" x="90" y="156" fill="#000"/><rect width="6" height="6" x="96" y="156" fill="#000"/><rect width="6" height="6" x="120" y="156" fill="#000"/><rect width="6" height="6" x="132" y="156" fill="#000"/><rect width="6" height="6" x="156" y="156" fill="#000"/><rect width="6" height="6" x="168" y="156" fill="#000"/><rect width="6" height="6" x="186" y="156" fill="#000"/><rect width="6" height="6" x="192" y="156" fill="#000"/><rect width="6" height="6" x="216" y="156" fill="#000"/><rect width="6" height="6" x="222" y="156" fill="#000"/><rect width="6" height="6" x="234" y="156" fill="#000"/><rect width="6" height="6" x="240" y="156" fill="#000"/><rect width="6" height="6" x="0" y="162" fill="#000"/><rect width="6" height="6" x="12" y="162" fill="#000"/><rect width="6" height="6" x="18" y="162" fill="#000"/><rect width="6" height="6" x="24" y="162" fill="#000"/><rect width="6" height="6" x="30" y="162" fill="#000"/><rect width="6" height="6" x="42" y="162" fill="#000"/><rect width="6" height="6" x="48" y="162" fill="#000"/><rect width="6" height="6" x="60" y="162" fill="#000"/><rect width="6" height="6" x="66" y="162" fill="#000"/><rect width="6" height="6" x="78" y="162" fill="#000"/><rect width="6" height="6" x="90" y="162" fill="#000"/><rect width="6" height="6" x="96" y="162" fill="#000"/><rect width="6" height="6" x="114" y="162" fill="#000"/><rect width="6" height="6" x="120" y="162" fill="#000"/><rect width="6" height="6" x="132" y="162" fill="#000"/><rect width="6" height="6" x="144" y="162" fill="#000"/><rect width="6" height="6" x="162" y="162" fill="#000"/><rect width="6" height="6" x="186" y="162" fill="#000"/><rect width="6" height="6" x="192" y="162" fill="#000"/><rect width="6" height="6" x="210" y="162" fill="#000"/><rect width="6" height="6" x="222" y="162" fill="#000"/><rect width="6" height="6" x="234" y="162" fill="#000"/><rect width="6" height="6" x="0" y="168" fill="#000"/><rect width="6" height="6" x="24" y="168" fill="#000"/><rect width="6" height="6" x="36" y="168" fill="#000"/><rect width="6" height="6" x="42" y="168" fill="#000"/><rect width="6" height="6" x="48" y="168" fill="#000"/><rect width="6" height="6" x="72" y="168" fill="#000"/><rect width="6" height="6" x="84" y="168" fill="#000"/><rect width="6" height="6" x="102" y="168" fill="#000"/><rect width="6" height="6" x="108" y="168" fill="#000"/><rect width="6" height="6" x="120" y="168" fill="#000"/><rect width="6" height="6" x="126" y="168" fill="#000"/><rect width="6" height="6" x="132" y="168" fill="#000"/><rect width="6" height="6" x="150" y="168" fill="#000"/><rect width="6" height="6" x="168" y="168" fill="#000"/><rect width="6" height="6" x="186" y="168" fill="#000"/><rect width="6" height="6" x="192" y="168" fill="#000"/><rect width="6" height="6" x="216" y="168" fill="#000"/><rect width="6" height="6" x="222" y="168" fill="#000"/><rect width="6" height="6" x="234" y="168" fill="#000"/><rect width="6" height="6" x="6" y="174" fill="#000"/><rect width="6" height="6" x="18" y="174" fill="#000"/><rect width="6" height="6" x="24" y="174" fill="#000"/><rect width="6" height="6" x="30" y="174" fill="#000"/><rect width="6" height="6" x="42" y="174" fill="#000"/><rect width="6" height="6" x="48" y="174" fill="#000"/><rect width="6" height="6" x="60" y="174" fill="#000"/><rect width="6" height="6" x="78" y="174" fill="#000"/><rect width="6" height="6" x="84" y="174" fill="#000"/><rect width="6" height="6" x="108" y="174" fill="#000"/><rect width="6" height="6" x="120" y="174" fill="#000"/><rect width="6" height="6" x="126" y="174" fill="#000"/><rect width="6" height="6" x="144" y="174" fill="#000"/><rect width="6" height="6" x="150" y="174" fill="#000"/><rect width="6" height="6" x="156" y="174" fill="#000"/><rect width="6" height="6" x="168" y="174" fill="#000"/><rect width="6" height="6" x="186" y="174" fill="#000"/><rect width="6" height="6" x="192" y="174" fill="#000"/><rect width="6" height="6" x="204" y="174" fill="#000"/><rect width="6" height="6" x="222" y="174" fill="#000"/><rect width="6" height="6" x="228" y="174" fill="#000"/><rect width="6" height="6" x="0" y="180" fill="#000"/><rect width="6" height="6" x="12" y="180" fill="#000"/><rect width="6" height="6" x="18" y="180" fill="#000"/><rect width="6" height="6" x="24" y="180" fill="#000"/><rect width="6" height="6" x="36" y="180" fill="#000"/><rect width="6" height="6" x="54" y="180" fill="#000"/><rect width="6" height="6" x="66" y="180" fill="#000"/><rect width="6" height="6" x="72" y="180" fill="#000"/><rect width="6" height="6" x="84" y="180" fill="#000"/><rect width="6" height="6" x="96" y="180" fill="#000"/><rect width="6" height="6" x="108" y="180" fill="#000"/><rect width="6" height="6" x="120" y="180" fill="#000"/><rect width="6" height="6" x="126" y="180" fill="#000"/><rect width="6" height="6" x="138" y="180" fill="#000"/><rect width="6" height="6" x="156" y="180" fill="#000"/><rect width="6" height="6" x="162" y="180" fill="#000"/><rect width="6" height="6" x="168" y="180" fill="#000"/><rect width="6" height="6" x="174" y="180" fill="#000"/><rect width="6" height="6" x="180" y="180" fill="#000"/><rect width="6" height="6" x="186" y="180" fill="#000"/><rect width="6" height="6" x="204" y="180" fill="#000"/><rect width="6" height="6" x="210" y="180" fill="#000"/><rect width="6" height="6" x="228" y="180" fill="#000"/><rect width="6" height="6" x="30" y="186" fill="#000"/><rect width="6" height="6" x="42" y="186" fill="#000"/><rect width="6" height="6" x="48" y="186" fill="#000"/><rect width="6" height="6" x="54" y="186" fill="#000"/><rect width="6" height="6" x="72" y="186" fill="#000"/><rect width="6" height="6" x="84" y="186" fill="#000"/><rect width="6" height="6" x="102" y="186" fill="#000"/><rect width="6" height="6" x="114" y="186" fill="#000"/><rect width="6" height="6" x="132" y="186" fill="#000"/><rect width="6" height="6" x="156" y="186" fill="#000"/><rect width="6" height="6" x="174" y="186" fill="#000"/><rect width="6" height="6" x="180" y="186" fill="#000"/><rect width="6" height="6" x="186" y="186" fill="#000"/><rect width="6" height="6" x="198" y="186" fill="#000"/><rect width="6" height="6" x="204" y="186" fill="#000"/><rect width="6" height="6" x="210" y="186" fill="#000"/><rect width="6" height="6" x="228" y="186" fill="#000"/><rect width="6" height="6" x="234" y="186" fill="#000"/><rect width="6" height="6" x="240" y="186" fill="#000"/><rect width="6" height="6" x="6" y="192" fill="#000"/><rect width="6" height="6" x="18" y="192" fill="#000"/><rect width="6" height="6" x="24" y="192" fill="#000"/><rect width="6" height="6" x="36" y="192" fill="#000"/><rect width="6" height="6" x="42" y="192" fill="#000"/><rect width="6" height="6" x="48" y="192" fill="#000"/><rect width="6" height="6" x="54" y="192" fill="#000"/><rect width="6" height="6" x="66" y="192" fill="#000"/><rect width="6" height="6" x="78" y="192" fill="#000"/><rect width="6" height="6" x="84" y="192" fill="#000"/><rect width="6" height="6" x="96" y="192" fill="#000"/><rect width="6" height="6" x="102" y="192" fill="#000"/><rect width="6" height="6" x="108" y="192" fill="#000"/><rect width="6" height="6" x="120" y="192" fill="#000"/><rect width="6" height="6" x="126" y="192" fill="#000"/><rect width="6" height="6" x="138" y="192" fill="#000"/><rect width="6" height="6" x="150" y="192" fill="#000"/><rect width="6" height="6" x="174" y="192" fill="#000"/><rect width="6" height="6" x="180" y="192" fill="#000"/><rect width="6" height="6" x="192" y="192" fill="#000"/><rect width="6" height="6" x="198" y="192" fill="#000"/><rect width="6" height="6" x="204" y="192" fill="#000"/><rect width="6" height="6" x="210" y="192" fill="#000"/><rect width="6" height="6" x="216" y="192" fill="#000"/><rect width="6" height="6" x="228" y="192" fill="#000"/><rect width="6" height="6" x="234" y="192" fill="#000"/><rect width="6" height="6" x="48" y="198" fill="#000"/><rect width="6" height="6" x="54" y="198" fill="#000"/><rect width="6" height="6" x="102" y="198" fill="#000"/><rect width="6" height="6" x="114" y="198" fill="#000"/><rect width="6" height="6" x="120" y="198" fill="#000"/><rect width="6" height="6" x="144" y="198" fill="#000"/><rect width="6" height="6" x="168" y="198" fill="#000"/><rect width="6" height="6" x="174" y="198" fill="#000"/><rect width="6" height="6" x="192" y="198" fill="#000"/><rect width="6" height="6" x="216" y="198" fill="#000"/><rect width="6" height="6" x="222" y="198" fill="#000"/><rect width="6" height="6" x="234" y="198" fill="#000"/><rect width="6" height="6" x="240" y="198" fill="#000"/><rect width="6" height="6" x="0" y="204" fill="#000"/><rect width="6" height="6" x="6" y="204" fill="#000"/><rect width="6" height="6" x="12" y="204" fill="#000"/><rect width="6" height="6" x="18" y="204" fill="#000"/><rect width="6" height="6" x="24" y="204" fill="#000"/><rect width="6" height="6" x="30" y="204" fill="#000"/><rect width="6" height="6" x="36" y="204" fill="#000"/><rect width="6" height="6" x="48" y="204" fill="#000"/><rect width="6" height="6" x="90" y="204" fill="#000"/><rect width="6" height="6" x="102" y="204" fill="#000"/><rect width="6" height="6" x="108" y="204" fill="#000"/><rect width="6" height="6" x="114" y="204" fill="#000"/><rect width="6" height="6" x="120" y="204" fill="#000"/><rect width="6" height="6" x="126" y="204" fill="#000"/><rect width="6" height="6" x="144" y="204" fill="#000"/><rect width="6" height="6" x="150" y="204" fill="#000"/><rect width="6" height="6" x="156" y="204" fill="#000"/><rect width="6" height="6" x="180" y="204" fill="#000"/><rect width="6" height="6" x="186" y="204" fill="#000"/><rect width="6" height="6" x="192" y="204" fill="#000"/><rect width="6" height="6" x="204" y="204" fill="#000"/><rect width="6" height="6" x="216" y="204" fill="#000"/><rect width="6" height="6" x="222" y="204" fill="#000"/><rect width="6" height="6" x="228" y="204" fill="#000"/><rect width="6" height="6" x="0" y="210" fill="#000"/><rect width="6" height="6" x="36" y="210" fill="#000"/><rect width="6" height="6" x="66" y="210" fill="#000"/><rect width="6" height="6" x="90" y="210" fill="#000"/><rect width="6" height="6" x="96" y="210" fill="#000"/><rect width="6" height="6" x="126" y="210" fill="#000"/><rect width="6" height="6" x="138" y="210" fill="#000"/><rect width="6" height="6" x="144" y="210" fill="#000"/><rect width="6" height="6" x="150" y="210" fill="#000"/><rect width="6" height="6" x="156" y="210" fill="#000"/><rect width="6" height="6" x="174" y="210" fill="#000"/><rect width="6" height="6" x="192" y="210" fill="#000"/><rect width="6" height="6" x="216" y="210" fill="#000"/><rect width="6" height="6" x="240" y="210" fill="#000"/><rect width="6" height="6" x="0" y="216" fill="#000"/><rect width="6" height="6" x="12" y="216" fill="#000"/><rect width="6" height="6" x="18" y="216" fill="#000"/><rect width="6" height="6" x="24" y="216" fill="#000"/><rect width="6" height="6" x="36" y="216" fill="#000"/><rect width="6" height="6" x="54" y="216" fill="#000"/><rect width="6" height="6" x="72" y="216" fill="#000"/><rect width="6" height="6" x="84" y="216" fill="#000"/><rect width="6" height="6" x="90" y="216" fill="#000"/><rect width="6" height="6" x="102" y="216" fill="#000"/><rect width="6" height="6" x="108" y="216" fill="#000"/><rect width="6" height="6" x="114" y="216" fill="#000"/><rect width="6" height="6" x="138" y="216" fill="#000"/><rect width="6" height="6" x="150" y="216" fill="#000"/><rect width="6" height="6" x="156" y="216" fill="#000"/><rect width="6" height="6" x="162" y="216" fill="#000"/><rect width="6" height="6" x="168" y="216" fill="#000"/><rect width="6" height="6" x="192" y="216" fill="#000"/><rect width="6" height="6" x="198" y="216" fill="#000"/><rect width="6" height="6" x="204" y="216" fill="#000"/><rect width="6" height="6" x="210" y="216" fill="#000"/><rect width="6" height="6" x="216" y="216" fill="#000"/><rect width="6" height="6" x="228" y="216" fill="#000"/><rect width="6" height="6" x="234" y="216" fill="#000"/><rect width="6" height="6" x="0" y="222" fill="#000"/><rect width="6" height="6" x="12" y="222" fill="#000"/><rect width="6" height="6" x="18" y="222" fill="#000"/><rect width="6" height="6" x="24" y="222" fill="#000"/><rect width="6" height="6" x="36" y="222" fill="#000"/><rect width="6" height="6" x="48" y="222" fill="#000"/><rect width="6" height="6" x="54" y="222" fill="#000"/><rect width="6" height="6" x="60" y="222" fill="#000"/><rect width="6" height="6" x="66" y="222" fill="#000"/><rect width="6" height="6" x="72" y="222" fill="#000"/><rect width="6" height="6" x="90" y="222" fill="#000"/><rect width="6" height="6" x="120" y="222" fill="#000"/><rect width="6" height="6" x="126" y="222" fill="#000"/><rect width="6" height="6" x="132" y="222" fill="#000"/><rect width="6" height="6" x="138" y="222" fill="#000"/><rect width="6" height="6" x="162" y="222" fill="#000"/><rect width="6" height="6" x="168" y="222" fill="#000"/><rect width="6" height="6" x="216" y="222" fill="#000"/><rect width="6" height="6" x="222" y="222" fill="#000"/><rect width="6" height="6" x="234" y="222" fill="#000"/><rect width="6" height="6" x="240" y="222" fill="#000"/><rect width="6" height="6" x="0" y="228" fill="#000"/><rect width="6" height="6" x="12" y="228" fill="#000"/><rect width="6" height="6" x="18" y="228" fill="#000"/><rect width="6" height="6" x="24" y="228" fill="#000"/><rect width="6" height="6" x="36" y="228" fill="#000"/><rect width="6" height="6" x="48" y="228" fill="#000"/><rect width="6" height="6" x="54" y="228" fill="#000"/><rect width="6" height="6" x="60" y="228" fill="#000"/><rect width="6" height="6" x="78" y="228" fill="#000"/><rect width="6" height="6" x="84" y="228" fill="#000"/><rect width="6" height="6" x="96" y="228" fill="#000"/><rect width="6" height="6" x="108" y="228" fill="#000"/><rect width="6" height="6" x="126" y="228" fill="#000"/><rect width="6" height="6" x="138" y="228" fill="#000"/><rect width="6" height="6" x="156" y="228" fill="#000"/><rect width="6" height="6" x="174" y="228" fill="#000"/><rect width="6" height="6" x="180" y="228" fill="#000"/><rect width="6" height="6" x="186" y="228" fill="#000"/><rect width="6" height="6" x="210" y="228" fill="#000"/><rect width="6" height="6" x="222" y="228" fill="#000"/><rect width="6" height="6" x="228" y="228" fill="#000"/><rect width="6" height="6" x="240" y="228" fill="#000"/><rect width="6" height="6" x="0" y="234" fill="#000"/><rect width="6" height="6" x="36" y="234" fill="#000"/><rect width="6" height="6" x="54" y="234" fill="#000"/><rect width="6" height="6" x="60" y="234" fill="#000"/><rect width="6" height="6" x="66" y="234" fill="#000"/><rect width="6" height="6" x="72" y="234" fill="#000"/><rect width="6" height="6" x="78" y="234" fill="#000"/><rect width="6" height="6" x="90" y="234" fill="#000"/><rect width="6" height="6" x="96" y="234" fill="#000"/><rect width="6" height="6" x="102" y="234" fill="#000"/><rect width="6" height="6" x="132" y="234" fill="#000"/><rect width="6" height="6" x="138" y="234" fill="#000"/><rect width="6" height="6" x="156" y="234" fill="#000"/><rect width="6" height="6" x="168" y="234" fill="#000"/><rect width="6" height="6" x="180" y="234" fill="#000"/><rect width="6" height="6" x="192" y="234" fill="#000"/><rect width="6" height="6" x="198" y="234" fill="#000"/><rect width="6" height="6" x="216" y="234" fill="#000"/><rect width="6" height="6" x="222" y="234" fill="#000"/><rect width="6" height="6" x="234" y="234" fill="#000"/><rect width="6" height="6" x="0" y="240" fill="#000"/><rect width="6" height="6" x="6" y="240" fill="#000"/><rect width="6" height="6" x="12" y="240" fill="#000"/><rect width="6" height="6" x="18" y="240" fill="#000"/><rect width="6" height="6" x="24" y="240" fill="#000"/><rect width="6" height="6" x="30" y="240" fill="#000"/><rect width="6" height="6" x="36" y="240" fill="#000"/><rect width="6" height="6" x="54" y="240" fill="#000"/><rect width="6" height="6" x="66" y="240" fill="#000"/><rect width="6" height="6" x="72" y="240" fill="#000"/><rect width="6" height="6" x="78" y="240" fill="#000"/><rect width="6" height="6" x="84" y="240" fill="#000"/><rect width="6" height="6" x="90" y="240" fill="#000"/><rect width="6" height="6" x="96" y="240" fill="#000"/><rect width="6" height="6" x="102" y="240" fill="#000"/><rect width="6" height="6" x="114" y="240" fill="#000"/><rect width="6" height="6" x="126" y="240" fill="#000"/><rect width="6" height="6" x="132" y="240" fill="#000"/><rect width="6" height="6" x="156" y="240" fill="#000"/><rect width="6" height="6" x="162" y="240" fill="#000"/><rect width="6" height="6" x="168" y="240" fill="#000"/><rect width="6" height="6" x="192" y="240" fill="#000"/><rect width="6" height="6" x="222" y="240" fill="#000"/><rect width="6" height="6" x="234" y="240" fill="#000"/></svg>