<?xml version="1.0" standalone="yes"?><svg version="1.1" xmlns="http://www.w3.org/2000/svg" xmlns:xlink="http://www.w3.org/1999/xlink" xmlns:ev="http://www.w3.org/2001/xml-events" width="246" height="246" shape-rendering="crispEdges"><rect width="6" height="6" x="0" y="0" fill="#000"/><rect width="6" height="6" x="6" y="0" fill="#000"/><rect width="6" height="6" x="12" y="0" fill="#000"/><rect width="6" height="6" x="18" y="0" fill="#000"/><rect width="6" height="6" x="24" y="0" fill="#000"/><rect width="6" height="6" x="30" y="0" fill="#000"/><rect width="6" height="6" x="36" y="0" fill="#000"/><rect width="6" height="6" x="48" y="0" fill="#000"/><rect width="6" height="6" x="60" y="0" fill="#000"/><rect width="6" height="6" x="72" y="0" fill="#000"/><rect width="6" height="6" x="96" y="0" fill="#000"/><rect width="6" height="6" x="102" y="0" fill="#000"/><rect width="6" height="6" x="126" y="0" fill="#000"/><rect width="6" height="6" x="162" y="0" fill="#000"/><rect width="6" height="6" x="174" y="0" fill="#000"/><rect width="6" height="6" x="180" y="0" fill="#000"/><rect width="6" height="6" x="186" y="0" fill="#000"/><rect width="6" height="6" x="204" y="0" fill="#000"/><rect width="6" height="6" x="210" y="0" fill="#000"/><rect width="6" height="6" x="216" y="0" fill="#000"/><rect width="6" height="6" x="222" y="0" fill="#000"/><rect width="6" height="6" x="228" y="0" fill="#000"/><rect width="6" height="6" x="234" y="0" fill="#000"/><rect width="6" height="6" x="240" y="0" fill="#000"/><rect width="6" height="6" x="0" y="6" fill="#000"/><rect width="6" height="6" x="36" y="6" fill="#000"/><rect width="6" height="6" x="48" y="6" fill="#000"/><rect width="6" height="6" x="54" y="6" fill="#000"/><rect width="6" height="6" x="66" y="6" fill="#000"/><rect width="6" height="6" x="84" y="6" fill="#000"/><rect width="6" height="6" x="102" y="6" fill="#000"/><rect width="6" height="6" x="114" y="6" fill="#000"/><rect width="6" height="6" x="120" y="6" fill="#000"/><rect width="6" height="6" x="132" y="6" fill="#000"/><rect width="6" height="6" x="162" y="6" fill="#000"/><rect width="6" height="6" x="180" y="6" fill="#000"/><rect width="6" height="6" x="192" y="6" fill="#000"/><rect width="6" height="6" x="204" y="6" fill="#000"/><rect width="6" height="6" x="240" y="6" fill="#000"/><rect width="6" height="6" x="0" y="12" fill="#000"/><rect width="6" height="6" x="12" y="12" fill="#000"/><rect width="6" height="6" x="18" y="12" fill="#000"/><rect width="6" height="6" x="24" y="12" fill="#000"/><rect width="6" height="6" x="36" y="12" fill="#000"/><rect width="6" height="6" x="60" y="12" fill="#000"/><rect width="6" height="6" x="66" y="12" fill="#000"/><rect width="6" height="6" x="72" y="12" fill="#000"/><rect width="6" height="6" x="90" y="12" fill="#000"/><rect width="6" height="6" x="108" y="12" fill="#000"/><rect width="6" height="6" x="138" y="12" fill="#000"/><rect width="6" height="6" x="156" y="12" fill="#000"/><rect width="6" height="6" x="168" y="12" fill="#000"/><rect width="6" height="6" x="180" y="12" fill="#000"/><rect width="6" height="6" x="186" y="12" fill="#000"/><rect width="6" height="6" x="192" y="12" fill="#000"/><rect width="6" height="6" x="204" y="12" fill="#000"/><rect width="6" height="6" x="216" y="12" fill="#000"/><rect width="6" height="6" x="222" y="12" fill="#000"/><rect width="6" height="6" x="228" y="12" fill="#000"/><rect width="6" height="6" x="240" y="12" fill="#000"/><rect width="6" height="6" x="0" y="18" fill="#000"/><rect width="6" height="6" x="12" y="18" fill="#000"/><rect width="6" height="6" x="18" y="18" fill="#000"/><rect width="6" height="6" x="24" y="18" fill="#000"/><rect width="6" height="6" x="36" y="18" fill="#000"/><rect width="6" height="6" x="48" y="18" fill="#000"/><rect width="6" height="6" x="78" y="18" fill="#000"/><rect width="6" height="6" x="84" y="18" fill="#000"/><rect width="6" height="6" x="114" y="18" fill="#000"/><rect width="6" height="6" x="120" y="18" fill="#000"/><rect width="6" height="6" x="138" y="18" fill="#000"/><rect width="6" height="6" x="150" y="18" fill="#000"/><rect width="6" height="6" x="162" y="18" fill="#000"/><rect width="6" height="6" x="174" y="18" fill="#000"/><rect width="6" height="6" x="180" y="18" fill="#000"/><rect width="6" height="6" x="186" y="18" fill="#000"/><rect width="6" height="6" x="192" y="18" fill="#000"/><rect width="6" height="6" x="204" y="18" fill="#000"/><rect width="6" height="6" x="216" y="18" fill="#000"/><rect width="6" height="6" x="222" y="18" fill="#000"/><rect width="6" height="6" x="228" y="18" fill="#000"/><rect width="6" height="6" x="240" y="18" fill="#000"/><rect width="6" height="6" x="0" y="24" fill="#000"/><rect width="6" height="6" x="12" y="24" fill="#000"/><rect width="6" height="6" x="18" y="24" fill="#000"/><rect width="6" height="6" x="24" y="24" fill="#000"/><rect width="6" height="6" x="36" y="24" fill="#000"/><rect width="6" height="6" x="48" y="24" fill="#000"/><rect width="6" height="6" x="60" y="24" fill="#000"/><rect width="6" height="6" x="66" y="24" fill="#000"/><rect width="6" height="6" x="72" y="24" fill="#000"/><rect width="6" height="6" x="78" y="24" fill="#000"/><rect width="6" height="6" x="84" y="24" fill="#000"/><rect width="6" height="6" x="102" y="24" fill="#000"/><rect width="6" height="6" x="108" y="24" fill="#000"/><rect width="6" height="6" x="126" y="24" fill="#000"/><rect width="6" height="6" x="138" y="24" fill="#000"/><rect width="6" height="6" x="162" y="24" fill="#000"/><rect width="6" height="6" x="180" y="24" fill="#000"/><rect width="6" height="6" x="204" y="24" fill="#000"/><rect width="6" height="6" x="216" y="24" fill="#000"/><rect width="6" height="6" x="222" y="24" fill="#000"/><rect width="6" height="6" x="228" y="24" fill="#000"/><rect width="6" height="6" x="240" y="24" fill="#000"/><rect width="6" height="6" x="0" y="30" fill="#000"/><rect width="6" height="6" x="36" y="30" fill="#000"/><rect width="6" height="6" x="48" y="30" fill="#000"/><rect width="6" height="6" x="60" y="30" fill="#000"/><rect width="6" height="6" x="66" y="30" fill="#000"/><rect width="6" height="6" x="72" y="30" fill="#000"/><rect width="6" height="6" x="78" y="30" fill="#000"/><rect width="6" height="6" x="90" y="30" fill="#000"/><rect width="6" height="6" x="102" y="30" fill="#000"/><rect width="6" height="6" x="108" y="30" fill="#000"/><rect width="6" height="6" x="114" y="30" fill="#000"/><rect width="6" height="6" x="126" y="30" fill="#000"/><rect width="6" height="6" x="132" y="30" fill="#000"/><rect width="6" height="6" x="156" y="30" fill="#000"/><rect width="6" height="6" x="162" y="30" fill="#000"/><rect width="6" height="6" x="168" y="30" fill="#000"/><rect width="6" height="6" x="174" y="30" fill="#000"/><rect width="6" height="6" x="186" y="30" fill="#000"/><rect width="6" height="6" x="204" y="30" fill="#000"/><rect width="6" height="6" x="240" y="30" fill="#000"/><rect width="6" height="6" x="0" y="36" fill="#000"/><rect width="6" height="6" x="6" y="36" fill="#000"/><rect width="6" height="6" x="12" y="36" fill="#000"/><rect width="6" height="6" x="18" y="36" fill="#000"/><rect width="6" height="6" x="24" y="36" fill="#000"/><rect width="6" height="6" x="30" y="36" fill="#000"/><rect width="6" height="6" x="36" y="36" fill="#000"/><rect width="6" height="6" x="48" y="36" fill="#000"/><rect width="6" height="6" x="60" y="36" fill="#000"/><rect width="6" height="6" x="72" y="36" fill="#000"/><rect width="6" height="6" x="84" y="36" fill="#000"/><rect width="6" height="6" x="96" y="36" fill="#000"/><rect width="6" height="6" x="108" y="36" fill="#000"/><rect width="6" height="6" x="120" y="36" fill="#000"/><rect width="6" height="6" x="132" y="36" fill="#000"/><rect width="6" height="6" x="144" y="36" fill="#000"/><rect width="6" height="6" x="156" y="36" fill="#000"/><rect width="6" height="6" x="168" y="36" fill="#000"/><rect width="6" height="6" x="180" y="36" fill="#000"/><rect width="6" height="6" x="192" y="36" fill="#000"/><rect width="6" height="6" x="204" y="36" fill="#000"/><rect width="6" height="6" x="210" y="36" fill="#000"/><rect width="6" height="6" x="216" y="36" fill="#000"/><rect width="6" height="6" x="222" y="36" fill="#000"/><rect width="6" height="6" x="228" y="36" fill="#000"/><rect width="6" height="6" x="234" y="36" fill="#000"/><rect width="6" height="6" x="240" y="36" fill="#000"/><rect width="6" height="6" x="66" y="42" fill="#000"/><rect width="6" height="6" x="72" y="42" fill="#000"/><rect width="6" height="6" x="84" y="42" fill="#000"/><rect width="6" height="6" x="90" y="42" fill="#000"/><rect width="6" height="6" x="96" y="42" fill="#000"/><rect width="6" height="6" x="102" y="42" fill="#000"/><rect width="6" height="6" x="108" y="42" fill="#000"/><rect width="6" height="6" x="120" y="42" fill="#000"/><rect width="6" height="6" x="132" y="42" fill="#000"/><rect width="6" height="6" x="162" y="42" fill="#000"/><rect width="6" height="6" x="168" y="42" fill="#000"/><rect width="6" height="6" x="174" y="42" fill="#000"/><rect width="6" height="6" x="18" y="48" fill="#000"/><rect width="6" height="6" x="36" y="48" fill="#000"/><rect width="6" height="6" x="60" y="48" fill="#000"/><rect width="6" height="6" x="72" y="48" fill="#000"/><rect width="6" height="6" x="96" y="48" fill="#000"/><rect width="6" height="6" x="102" y="48" fill="#000"/><rect width="6" height="6" x="114" y="48" fill="#000"/><rect width="6" height="6" x="132" y="48" fill="#000"/><rect width="6" height="6" x="150" y="48" fill="#000"/><rect width="6" height="6" x="180" y="48" fill="#000"/><rect width="6" height="6" x="192" y="48" fill="#000"/><rect width="6" height="6" x="210" y="48" fill="#000"/><rect width="6" height="6" x="216" y="48" fill="#000"/><rect width="6" height="6" x="222" y="48" fill="#000"/><rect width="6" height="6" x="234" y="48" fill="#000"/><rect width="6" height="6" x="240" y="48" fill="#000"/><rect width="6" height="6" x="6" y="54" fill="#000"/><rect width="6" height="6" x="18" y="54" fill="#000"/><rect width="6" height="6" x="24" y="54" fill="#000"/><rect width="6" height="6" x="48" y="54" fill="#000"/><rect width="6" height="6" x="72" y="54" fill="#000"/><rect width="6" height="6" x="114" y="54" fill="#000"/><rect width="6" height="6" x="120" y="54" fill="#000"/><rect width="6" height="6" x="132" y="54" fill="#000"/><rect width="6" height="6" x="138" y="54" fill="#000"/><rect width="6" height="6" x="174" y="54" fill="#000"/><rect width="6" height="6" x="180" y="54" fill="#000"/><rect width="6" height="6" x="198" y="54" fill="#000"/><rect width="6" height="6" x="204" y="54" fill="#000"/><rect width="6" height="6" x="210" y="54" fill="#000"/><rect width="6" height="6" x="222" y="54" fill="#000"/><rect width="6" height="6" x="228" y="54" fill="#000"/><rect width="6" height="6" x="234" y="54" fill="#000"/><rect width="6" height="6" x="240" y="54" fill="#000"/><rect width="6" height="6" x="0" y="60" fill="#000"/><rect width="6" height="6" x="6" y="60" fill="#000"/><rect width="6" height="6" x="12" y="60" fill="#000"/><rect width="6" height="6" x="36" y="60" fill="#000"/><rect width="6" height="6" x="48" y="60" fill="#000"/><rect width="6" height="6" x="54" y="60" fill="#000"/><rect width="6" height="6" x="60" y="60" fill="#000"/><rect width="6" height="6" x="78" y="60" fill="#000"/><rect width="6" height="6" x="96" y="60" fill="#000"/><rect width="6" height="6" x="108" y="60" fill="#000"/><rect width="6" height="6" x="180" y="60" fill="#000"/><rect width="6" height="6" x="186" y="60" fill="#000"/><rect width="6" height="6" x="216" y="60" fill="#000"/><rect width="6" height="6" x="222" y="60" fill="#000"/><rect width="6" height="6" x="228" y="60" fill="#000"/><rect width="6" height="6" x="234" y="60" fill="#000"/><rect width="6" height="6" x="0" y="66" fill="#000"/><rect width="6" height="6" x="18" y="66" fill="#000"/><rect width="6" height="6" x="24" y="66" fill="#000"/><rect width="6" height="6" x="42" y="66" fill="#000"/><rect width="6" height="6" x="48" y="66" fill="#000"/><rect width="6" height="6" x="54" y="66" fill="#000"/><rect width="6" height="6" x="66" y="66" fill="#000"/><rect width="6" height="6" x="90" y="66" fill="#000"/><rect width="6" height="6" x="114" y="66" fill="#000"/><rect width="6" height="6" x="126" y="66" fill="#000"/><rect width="6" height="6" x="132" y="66" fill="#000"/><rect width="6" height="6" x="144" y="66" fill="#000"/><rect width="6" height="6" x="168" y="66" fill="#000"/><rect width="6" height="6" x="186" y="66" fill="#000"/><rect width="6" height="6" x="192" y="66" fill="#000"/><rect width="6" height="6" x="210" y="66" fill="#000"/><rect width="6" height="6" x="228" y="66" fill="#000"/><rect width="6" height="6" x="6" y="72" fill="#000"/><rect width="6" height="6" x="12" y="72" fill="#000"/><rect width="6" height="6" x="30" y="72" fill="#000"/><rect width="6" height="6" x="36" y="72" fill="#000"/><rect width="6" height="6" x="42" y="72" fill="#000"/><rect width="6" height="6" x="48" y="72" fill="#000"/><rect width="6" height="6" x="66" y="72" fill="#000"/><rect width="6" height="6" x="102" y="72" fill="#000"/><rect width="6" height="6" x="114" y="72" fill="#000"/><rect width="6" height="6" x="120" y="72" fill="#000"/><rect width="6" height="6" x="144" y="72" fill="#000"/><rect width="6" height="6" x="150" y="72" fill="#000"/><rect width="6" height="6" x="162" y="72" fill="#000"/><rect width="6" height="6" x="168" y="72" fill="#000"/><rect width="6" height="6" x="174" y="72" fill="#000"/><rect width="6" height="6" x="204" y="72" fill="#000"/><rect width="6" height="6" x="210" y="72" fill="#000"/><rect width="6" height="6" x="222" y="72" fill="#000"/><rect width="6" height="6" x="6" y="78" fill="#000"/><rect width="6" height="6" x="18" y="78" fill="#000"/><rect width="6" height="6" x="42" y="78" fill="#000"/><rect width="6" height="6" x="54" y="78" fill="#000"/><rect width="6" height="6" x="84" y="78" fill="#000"/><rect width="6" height="6" x="96" y="78" fill="#000"/><rect width="6" height="6" x="102" y="78" fill="#000"/><rect width="6" height="6" x="108" y="78" fill="#000"/><rect width="6" height="6" x="120" y="78" fill="#000"/><rect width="6" height="6" x="138" y="78" fill="#000"/><rect width="6" height="6" x="144" y="78" fill="#000"/><rect width="6" height="6" x="150" y="78" fill="#000"/><rect width="6" height="6" x="162" y="78" fill="#000"/><rect width="6" height="6" x="210" y="78" fill="#000"/><rect width="6" height="6" x="0" y="84" fill="#000"/><rect width="6" height="6" x="12" y="84" fill="#000"/><rect width="6" height="6" x="24" y="84" fill="#000"/><rect width="6" height="6" x="36" y="84" fill="#000"/><rect width="6" height="6" x="42" y="84" fill="#000"/><rect width="6" height="6" x="84" y="84" fill="#000"/><rect width="6" height="6" x="90" y="84" fill="#000"/><rect width="6" height="6" x="102" y="84" fill="#000"/><rect width="6" height="6" x="108" y="84" fill="#000"/><rect width="6" height="6" x="114" y="84" fill="#000"/><rect width="6" height="6" x="120" y="84" fill="#000"/><rect width="6" height="6" x="132" y="84" fill="#000"/><rect width="6" height="6" x="144" y="84" fill="#000"/><rect width="6" height="6" x="162" y="84" fill="#000"/><rect width="6" height="6" x="168" y="84" fill="#000"/><rect width="6" height="6" x="174" y="84" fill="#000"/><rect width="6" height="6" x="180" y="84" fill="#000"/><rect width="6" height="6" x="192" y="84" fill="#000"/><rect width="6" height="6" x="210" y="84" fill="#000"/><rect width="6" height="6" x="216" y="84" fill="#000"/><rect width="6" height="6" x="222" y="84" fill="#000"/><rect width="6" height="6" x="234" y="84" fill="#000"/><rect width="6" height="6" x="240" y="84" fill="#000"/><rect width="6" height="6" x="6" y="90" fill="#000"/><rect width="6" height="6" x="12" y="90" fill="#000"/><rect width="6" height="6" x="18" y="90" fill="#000"/><rect width="6" height="6" x="30" y="90" fill="#000"/><rect width="6" height="6" x="66" y="90" fill="#000"/><rect width="6" height="6" x="72" y="90" fill="#000"/><rect width="6" height="6" x="84" y="90" fill="#000"/><rect width="6" height="6" x="96" y="90" fill="#000"/><rect width="6" height="6" x="108" y="90" fill="#000"/><rect width="6" height="6" x="114" y="90" fill="#000"/><rect width="6" height="6" x="120" y="90" fill="#000"/><rect width="6" height="6" x="132" y="90" fill="#000"/><rect width="6" height="6" x="150" y="90" fill="#000"/><rect width="6" height="6" x="156" y="90" fill="#000"/><rect width="6" height="6" x="168" y="90" fill="#000"/><rect width="6" height="6" x="174" y="90" fill="#000"/><rect width="6" height="6" x="180" y="90" fill="#000"/><rect width="6" height="6" x="186" y="90" fill="#000"/><rect width="6" height="6" x="198" y="90" fill="#000"/><rect width="6" height="6" x="204" y="90" fill="#000"/><rect width="6" height="6" x="210" y="90" fill="#000"/><rect width="6" height="6" x="222" y="90" fill="#000"/><rect width="6" height="6" x="6" y="96" fill="#000"/><rect width="6" height="6" x="30" y="96" fill="#000"/><rect width="6" height="6" x="36" y="96" fill="#000"/><rect width="6" height="6" x="42" y="96" fill="#000"/><rect width="6" height="6" x="54" y="96" fill="#000"/><rect width="6" height="6" x="66" y="96" fill="#000"/><rect width="6" height="6" x="84" y="96" fill="#000"/><rect width="6" height="6" x="90" y="96" fill="#000"/><rect width="6" height="6" x="96" y="96" fill="#000"/><rect width="6" height="6" x="102" y="96" fill="#000"/><rect width="6" height="6" x="108" y="96" fill="#000"/><rect width="6" height="6" x="120" y="96" fill="#000"/><rect width="6" height="6" x="150" y="96" fill="#000"/><rect width="6" height="6" x="156" y="96" fill="#000"/><rect width="6" height="6" x="162" y="96" fill="#000"/><rect width="6" height="6" x="174" y="96" fill="#000"/><rect width="6" height="6" x="186" y="96" fill="#000"/><rect width="6" height="6" x="192" y="96" fill="#000"/><rect width="6" height="6" x="210" y="96" fill="#000"/><rect width="6" height="6" x="234" y="96" fill="#000"/><rect width="6" height="6" x="6" y="102" fill="#000"/><rect width="6" height="6" x="18" y="102" fill="#000"/><rect width="6" height="6" x="24" y="102" fill="#000"/><rect width="6" height="6" x="30" y="102" fill="#000"/><rect width="6" height="6" x="42" y="102" fill="#000"/><rect width="6" height="6" x="48" y="102" fill="#000"/><rect width="6" height="6" x="54" y="102" fill="#000"/><rect width="6" height="6" x="72" y="102" fill="#000"/><rect width="6" height="6" x="84" y="102" fill="#000"/><rect width="6" height="6" x="108" y="102" fill="#000"/><rect width="6" height="6" x="120" y="102" fill="#000"/><rect width="6" height="6" x="132" y="102" fill="#000"/><rect width="6" height="6" x="156" y="102" fill="#000"/><rect width="6" height="6" x="168" y="102" fill="#000"/><rect width="6" height="6" x="180" y="102" fill="#000"/><rect width="6" height="6" x="198" y="102" fill="#000"/><rect width="6" height="6" x="204" y="102" fill="#000"/><rect width="6" height="6" x="228" y="102" fill="#000"/><rect width="6" height="6" x="240" y="102" fill="#000"/><rect width="6" height="6" x="18" y="108" fill="#000"/><rect width="6" height="6" x="24" y="108" fill="#000"/><rect width="6" height="6" x="30" y="108" fill="#000"/><rect width="6" height="6" x="36" y="108" fill="#000"/><rect width="6" height="6" x="54" y="108" fill="#000"/><rect width="6" height="6" x="60" y="108" fill="#000"/><rect width="6" height="6" x="66" y="108" fill="#000"/><rect width="6" height="6" x="72" y="108" fill="#000"/><rect width="6" height="6" x="102" y="108" fill="#000"/><rect width="6" height="6" x="114" y="108" fill="#000"/><rect width="6" height="6" x="120" y="108" fill="#000"/><rect width="6" height="6" x="132" y="108" fill="#000"/><rect width="6" height="6" x="138" y="108" fill="#000"/><rect width="6" height="6" x="144" y="108" fill="#000"/><rect width="6" height="6" x="150" y="108" fill="#000"/><rect width="6" height="6" x="156" y="108" fill="#000"/><rect width="6" height="6" x="168" y="108" fill="#000"/><rect width="6" height="6" x="180" y="108" fill="#000"/><rect width="6" height="6" x="204" y="108" fill="#000"/><rect width="6" height="6" x="216" y="108" fill="#000"/><rect width="6" height="6" x="240" y="108" fill="#000"/><rect width="6" height="6" x="0" y="114" fill="#000"/><rect width="6" height="6" x="24" y="114" fill="#000"/><rect width="6" height="6" x="30" y="114" fill="#000"/><rect width="6" height="6" x="48" y="114" fill="#000"/><rect width="6" height="6" x="66" y="114" fill="#000"/><rect width="6" height="6" x="78" y="114" fill="#000"/><rect width="6" height="6" x="84" y="114" fill="#000"/><rect width="6" height="6" x="90" y="114" fill="#000"/><rect width="6" height="6" x="96" y="114" fill="#000"/><rect width="6" height="6" x="108" y="114" fill="#000"/><rect width="6" height="6" x="120" y="114" fill="#000"/><rect width="6" height="6" x="126" y="114" fill="#000"/><rect width="6" height="6" x="138" y="114" fill="#000"/><rect width="6" height="6" x="168" y="114" fill="#000"/><rect width="6" height="6" x="174" y="114" fill="#000"/><rect width="6" height="6" x="180" y="114" fill="#000"/><rect width="6" height="6" x="192" y="114" fill="#000"/><rect width="6" height="6" x="198" y="114" fill="#000"/><rect width="6" height="6" x="204" y="114" fill="#000"/><rect width="6" height="6" x="210" y="114" fill="#000"/><rect width="6" height="6" x="222" y="114" fill="#000"/><rect width="6" height="6" x="234" y="114" fill="#000"/><rect width="6" height="6" x="0" y="120" fill="#000"/><rect width="6" height="6" x="6" y="120" fill="#000"/><rect width="6" height="6" x="12" y="120" fill="#000"/><rect width="6" height="6" x="24" y="120" fill="#000"/><rect width="6" height="6" x="30" y="120" fill="#000"/><rect width="6" height="6" x="36" y="120" fill="#000"/><rect width="6" height="6" x="48" y="120" fill="#000"/><rect width="6" height="6" x="54" y="120" fill="#000"/><rect width="6" height="6" x="78" y="120" fill="#000"/><rect width="6" height="6" x="84" y="120" fill="#000"/><rect width="6" height="6" x="132" y="120" fill="#000"/><rect width="6" height="6" x="138" y="120" fill="#000"/><rect width="6" height="6" x="150" y="120" fill="#000"/><rect width="6" height="6" x="156" y="120" fill="#000"/><rect width="6" height="6" x="174" y="120" fill="#000"/><rect width="6" height="6" x="180" y="120" fill="#000"/><rect width="6" height="6" x="204" y="120" fill="#000"/><rect width="6" height="6" x="228" y="120" fill="#000"/><rect width="6" height="6" x="234" y="120" fill="#000"/><rect width="6" height="6" x="0" y="126" fill="#000"/><rect width="6" height="6" x="6" y="126" fill="#000"/><rect width="6" height="6" x="18" y="126" fill="#000"/><rect width="6" height="6" x="30" y="126" fill="#000"/><rect width="6" height="6" x="48" y="126" fill="#000"/><rect width="6" height="6" x="54" y="126" fill="#000"/><rect width="6" height="6" x="60" y="126" fill="#000"/><rect width="6" height="6" x="66" y="126" fill="#000"/><rect width="6" height="6" x="84" y="126" fill="#000"/><rect width="6" height="6" x="90" y="126" fill="#000"/><rect width="6" height="6" x="96" y="126" fill="#000"/><rect width="6" height="6" x="102" y="126" fill="#000"/><rect width="6" height="6" x="108" y="126" fill="#000"/><rect width="6" height="6" x="132" y="126" fill="#000"/><rect width="6" height="6" x="144" y="126" fill="#000"/><rect width="6" height="6" x="150" y="126" fill="#000"/><rect width="6" height="6" x="156" y="126" fill="#000"/><rect width="6" height="6" x="174" y="126" fill="#000"/><rect width="6" height="6" x="180" y="126" fill="#000"/><rect width="6" height="6" x="192" y="126" fill="#000"/><rect width="6" height="6" x="204" y="126" fill="#000"/><rect width="6" height="6" x="210" y="126" fill="#000"/><rect width="6" height="6" x="228" y="126" fill="#000"/><rect width="6" height="6" x="234" y="126" fill="#000"/><rect width="6" height="6" x="240" y="126" fill="#000"/><rect width="6" height="6" x="12" y="132" fill="#000"/><rect width="6" height="6" x="24" y="132" fill="#000"/><rect width="6" height="6" x="36" y="132" fill="#000"/><rect width="6" height="6" x="78" y="132" fill="#000"/><rect width="6" height="6" x="84" y="132" fill="#000"/><rect width="6" height="6" x="114" y="132" fill="#000"/><rect width="6" height="6" x="126" y="132" fill="#000"/><rect width="6" height="6" x="174" y="132" fill="#000"/><rect width="6" height="6" x="186" y="132" fill="#000"/><rect width="6" height="6" x="198" y="132" fill="#000"/><rect width="6" height="6" x="204" y="132" fill="#000"/><rect width="6" height="6" x="210" y="132" fill="#000"/><rect width="6" height="6" x="234" y="132" fill="#000"/><rect width="6" height="6" x="12" y="138" fill="#000"/><rect width="6" height="6" x="24" y="138" fill="#000"/><rect width="6" height="6" x="30" y="138" fill="#000"/><rect width="6" height="6" x="54" y="138" fill="#000"/><rect width="6" height="6" x="78" y="138" fill="#000"/><rect width="6" height="6" x="90" y="138" fill="#000"/><rect width="6" height="6" x="138" y="138" fill="#000"/><rect width="6" height="6" x="144" y="138" fill="#000"/><rect width="6" height="6" x="150" y="138" fill="#000"/><rect width="6" height="6" x="156" y="138" fill="#000"/><rect width="6" height="6" x="168" y="138" fill="#000"/><rect width="6" height="6" x="180" y="138" fill="#000"/><rect width="6" height="6" x="204" y="138" fill="#000"/><rect width="6" height="6" x="228" y="138" fill="#000"/><rect width="6" height="6" x="234" y="138" fill="#000"/><rect width="6" height="6" x="240" y="138" fill="#000"/><rect width="6" height="6" x="0" y="144" fill="#000"/><rect width="6" height="6" x="24" y="144" fill="#000"/><rect width="6" height="6" x="30" y="144" fill="#000"/><rect width="6" height="6" x="36" y="144" fill="#000"/><rect width="6" height="6" x="60" y="144" fill="#000"/><rect width="6" height="6" x="78" y="144" fill="#000"/><rect width="6" height="6" x="90" y="144" fill="#000"/><rect width="6" height="6" x="96" y="144" fill="#000"/><rect width="6" height="6" x="108" y="144" fill="#000"/><rect width="6" height="6" x="114" y="144" fill="#000"/><rect width="6" height="6" x="126" y="144" fill="#000"/><rect width="6" height="6" x="132" y="144" fill="#000"/><rect width="6" height="6" x="138" y="144" fill="#000"/><rect width="6" height="6" x="144" y="144" fill="#000"/><rect width="6" height="6" x="168" y="144" fill="#000"/><rect width="6" height="6" x="174" y="144" fill="#000"/><rect width="6" height="6" x="180" y="144" fill="#000"/><rect width="6" height="6" x="186" y="144" fill="#000"/><rect width="6" height="6" x="198" y="144" fill="#000"/><rect width="6" height="6" x="204" y="144" fill="#000"/><rect width="6" height="6" x="210" y="144" fill="#000"/><rect width="6" height="6" x="240" y="144" fill="#000"/><rect width="6" height="6" x="12" y="150" fill="#000"/><rect width="6" height="6" x="42" y="150" fill="#000"/><rect width="6" height="6" x="54" y="150" fill="#000"/><rect width="6" height="6" x="60" y="150" fill="#000"/><rect width="6" height="6" x="66" y="150" fill="#000"/><rect width="6" height="6" x="120" y="150" fill="#000"/><rect width="6" height="6" x="132" y="150" fill="#000"/><rect width="6" height="6" x="138" y="150" fill="#000"/><rect width="6" height="6" x="144" y="150" fill="#000"/><rect width="6" height="6" x="150" y="150" fill="#000"/><rect width="6" height="6" x="156" y="150" fill="#000"/><rect width="6" height="6" x="168" y="150" fill="#000"/><rect width="6" height="6" x="186" y="150" fill="#000"/><rect width="6" height="6" x="222" y="150" fill="#000"/><rect width="6" height="6" x="234" y="150" fill="#000"/><rect width="6" height="6" x="0" y="156" fill="#000"/><rect width="6" height="6" x="6" y="156" fill="#000"/><rect width="6" height="6" x="30" y="156" fill="#000"/><rect width="6" height="6" x="36" y="156" fill="#000"/><rect width="6" height="6" x="42" y="156" fill="#000"/><rect width="6" height="6" x="54" y="156" fill="#000"/><rect width="6" height="6" x="60" y="156" fill="#000"/><rect width="6" height="6" x="66" y="156" fill="#000"/><rect width="6" height="6" x="84" y="156" fill="#000"/><rect width="6" height="6" x="90" y="156" fill="#000"/><rect width="6" height="6" x="96" y="156" fill="#000"/><rect width="6" height="6" x="102" y="156" fill="#000"/><rect width="6" height="6" x="108" y="156" fill="#000"/><rect width="6" height="6" x="114" y="156" fill="#000"/><rect width="6" height="6" x="120" y="156" fill="#000"/><rect width="6" height="6" x="132" y="156" fill="#000"/><rect width="6" height="6" x="138" y="156" fill="#000"/><rect width="6" height="6" x="144" y="156" fill="#000"/><rect width="6" height="6" x="150" y="156" fill="#000"/><rect width="6" height="6" x="156" y="156" fill="#000"/><rect width="6" height="6" x="168" y="156" fill="#000"/><rect width="6" height="6" x="174" y="156" fill="#000"/><rect width="6" height="6" x="180" y="156" fill="#000"/><rect width="6" height="6" x="192" y="156" fill="#000"/><rect width="6" height="6" x="198" y="156" fill="#000"/><rect width="6" height="6" x="204" y="156" fill="#000"/><rect width="6" height="6" x="210" y="156" fill="#000"/><rect width="6" height="6" x="234" y="156" fill="#000"/><rect width="6" height="6" x="240" y="156" fill="#000"/><rect width="6" height="6" x="0" y="162" fill="#000"/><rect width="6" height="6" x="6" y="162" fill="#000"/><rect width="6" height="6" x="12" y="162" fill="#000"/><rect width="6" height="6" x="18" y="162" fill="#000"/><rect width="6" height="6" x="24" y="162" fill="#000"/><rect width="6" height="6" x="30" y="162" fill="#000"/><rect width="6" height="6" x="48" y="162" fill="#000"/><rect width="6" height="6" x="60" y="162" fill="#000"/><rect width="6" height="6" x="72" y="162" fill="#000"/><rect width="6" height="6" x="90" y="162" fill="#000"/><rect width="6" height="6" x="96" y="162" fill="#000"/><rect width="6" height="6" x="102" y="162" fill="#000"/><rect width="6" height="6" x="108" y="162" fill="#000"/><rect width="6" height="6" x="120" y="162" fill="#000"/><rect width="6" height="6" x="132" y="162" fill="#000"/><rect width="6" height="6" x="138" y="162" fill="#000"/><rect width="6" height="6" x="150" y="162" fill="#000"/><rect width="6" height="6" x="162" y="162" fill="#000"/><rect width="6" height="6" x="174" y="162" fill="#000"/><rect width="6" height="6" x="180" y="162" fill="#000"/><rect width="6" height="6" x="192" y="162" fill="#000"/><rect width="6" height="6" x="204" y="162" fill="#000"/><rect width="6" height="6" x="216" y="162" fill="#000"/><rect width="6" height="6" x="234" y="162" fill="#000"/><rect width="6" height="6" x="0" y="168" fill="#000"/><rect width="6" height="6" x="6" y="168" fill="#000"/><rect width="6" height="6" x="36" y="168" fill="#000"/><rect width="6" height="6" x="48" y="168" fill="#000"/><rect width="6" height="6" x="66" y="168" fill="#000"/><rect width="6" height="6" x="72" y="168" fill="#000"/><rect width="6" height="6" x="78" y="168" fill="#000"/><rect width="6" height="6" x="84" y="168" fill="#000"/><rect width="6" height="6" x="96" y="168" fill="#000"/><rect width="6" height="6" x="114" y="168" fill="#000"/><rect width="6" height="6" x="126" y="168" fill="#000"/><rect width="6" height="6" x="132" y="168" fill="#000"/><rect width="6" height="6" x="138" y="168" fill="#000"/><rect width="6" height="6" x="168" y="168" fill="#000"/><rect width="6" height="6" x="174" y="168" fill="#000"/><rect width="6" height="6" x="180" y="168" fill="#000"/><rect width="6" height="6" x="192" y="168" fill="#000"/><rect width="6" height="6" x="210" y="168" fill="#000"/><rect width="6" height="6" x="234" y="168" fill="#000"/><rect width="6" height="6" x="6" y="174" fill="#000"/><rect width="6" height="6" x="12" y="174" fill="#000"/><rect width="6" height="6" x="30" y="174" fill="#000"/><rect width="6" height="6" x="42" y="174" fill="#000"/><rect width="6" height="6" x="54" y="174" fill="#000"/><rect width="6" height="6" x="72" y="174" fill="#000"/><rect width="6" height="6" x="78" y="174" fill="#000"/><rect width="6" height="6" x="90" y="174" fill="#000"/><rect width="6" height="6" x="96" y="174" fill="#000"/><rect width="6" height="6" x="108" y="174" fill="#000"/><rect width="6" height="6" x="114" y="174" fill="#000"/><rect width="6" height="6" x="132" y="174" fill="#000"/><rect width="6" height="6" x="144" y="174" fill="#000"/><rect width="6" height="6" x="150" y="174" fill="#000"/><rect width="6" height="6" x="162" y="174" fill="#000"/><rect width="6" height="6" x="186" y="174" fill="#000"/><rect width="6" height="6" x="198" y="174" fill="#000"/><rect width="6" height="6" x="222" y="174" fill="#000"/><rect width="6" height="6" x="234" y="174" fill="#000"/><rect width="6" height="6" x="240" y="174" fill="#000"/><rect width="6" height="6" x="0" y="180" fill="#000"/><rect width="6" height="6" x="36" y="180" fill="#000"/><rect width="6" height="6" x="48" y="180" fill="#000"/><rect width="6" height="6" x="60" y="180" fill="#000"/><rect width="6" height="6" x="108" y="180" fill="#000"/><rect width="6" height="6" x="132" y="180" fill="#000"/><rect width="6" height="6" x="138" y="180" fill="#000"/><rect width="6" height="6" x="174" y="180" fill="#000"/><rect width="6" height="6" x="180" y="180" fill="#000"/><rect width="6" height="6" x="186" y="180" fill="#000"/><rect width="6" height="6" x="192" y="180" fill="#000"/><rect width="6" height="6" x="198" y="180" fill="#000"/><rect width="6" height="6" x="210" y="180" fill="#000"/><rect width="6" height="6" x="234" y="180" fill="#000"/><rect width="6" height="6" x="240" y="180" fill="#000"/><rect width="6" height="6" x="12" y="186" fill="#000"/><rect width="6" height="6" x="18" y="186" fill="#000"/><rect width="6" height="6" x="24" y="186" fill="#000"/><rect width="6" height="6" x="30" y="186" fill="#000"/><rect width="6" height="6" x="42" y="186" fill="#000"/><rect width="6" height="6" x="60" y="186" fill="#000"/><rect width="6" height="6" x="66" y="186" fill="#000"/><rect width="6" height="6" x="72" y="186" fill="#000"/><rect width="6" height="6" x="90" y="186" fill="#000"/><rect width="6" height="6" x="102" y="186" fill="#000"/><rect width="6" height="6" x="114" y="186" fill="#000"/><rect width="6" height="6" x="120" y="186" fill="#000"/><rect width="6" height="6" x="126" y="186" fill="#000"/><rect width="6" height="6" x="144" y="186" fill="#000"/><rect width="6" height="6" x="162" y="186" fill="#000"/><rect width="6" height="6" x="168" y="186" fill="#000"/><rect width="6" height="6" x="174" y="186" fill="#000"/><rect width="6" height="6" x="180" y="186" fill="#000"/><rect width="6" height="6" x="186" y="186" fill="#000"/><rect width="6" height="6" x="192" y="186" fill="#000"/><rect width="6" height="6" x="210" y="186" fill="#000"/><rect width="6" height="6" x="0" y="192" fill="#000"/><rect width="6" height="6" x="18" y="192" fill="#000"/><rect width="6" height="6" x="24" y="192" fill="#000"/><rect width="6" height="6" x="30" y="192" fill="#000"/><rect width="6" height="6" x="36" y="192" fill="#000"/><rect width="6" height="6" x="48" y="192" fill="#000"/><rect width="6" height="6" x="54" y="192" fill="#000"/><rect width="6" height="6" x="72" y="192" fill="#000"/><rect width="6" height="6" x="84" y="192" fill="#000"/><rect width="6" height="6" x="90" y="192" fill="#000"/><rect width="6" height="6" x="96" y="192" fill="#000"/><rect width="6" height="6" x="114" y="192" fill="#000"/><rect width="6" height="6" x="120" y="192" fill="#000"/><rect width="6" height="6" x="126" y="192" fill="#000"/><rect width="6" height="6" x="138" y="192" fill="#000"/><rect width="6" height="6" x="144" y="192" fill="#000"/><rect width="6" height="6" x="186" y="192" fill="#000"/><rect width="6" height="6" x="192" y="192" fill="#000"/><rect width="6" height="6" x="198" y="192" fill="#000"/><rect width="6" height="6" x="204" y="192" fill="#000"/><rect width="6" height="6" x="210" y="192" fill="#000"/><rect width="6" height="6" x="216" y="192" fill="#000"/><rect width="6" height="6" x="222" y="192" fill="#000"/><rect width="6" height="6" x="228" y="192" fill="#000"/><rect width="6" height="6" x="234" y="192" fill="#000"/><rect width="6" height="6" x="48" y="198" fill="#000"/><rect width="6" height="6" x="66" y="198" fill="#000"/><rect width="6" height="6" x="72" y="198" fill="#000"/><rect width="6" height="6" x="108" y="198" fill="#000"/><rect width="6" height="6" x="120" y="198" fill="#000"/><rect width="6" height="6" x="126" y="198" fill="#000"/><rect width="6" height="6" x="138" y="198" fill="#000"/><rect width="6" height="6" x="150" y="198" fill="#000"/><rect width="6" height="6" x="168" y="198" fill="#000"/><rect width="6" height="6" x="180" y="198" fill="#000"/><rect width="6" height="6" x="186" y="198" fill="#000"/><rect width="6" height="6" x="192" y="198" fill="#000"/><rect width="6" height="6" x="216" y="198" fill="#000"/><rect width="6" height="6" x="234" y="198" fill="#000"/><rect width="6" height="6" x="240" y="198" fill="#000"/><rect width="6" height="6" x="0" y="204" fill="#000"/><rect width="6" height="6" x="6" y="204" fill="#000"/><rect width="6" height="6" x="12" y="204" fill="#000"/><rect width="6" height="6" x="18" y="204" fill="#000"/><rect width="6" height="6" x="24" y="204" fill="#000"/><rect width="6" height="6" x="30" y="204" fill="#000"/><rect width="6" height="6" x="36" y="204" fill="#000"/><rect width="6" height="6" x="54" y="204" fill="#000"/><rect width="6" height="6" x="60" y="204" fill="#000"/><rect width="6" height="6" x="66" y="204" fill="#000"/><rect width="6" height="6" x="72" y="204" fill="#000"/><rect width="6" height="6" x="78" y="204" fill="#000"/><rect width="6" height="6" x="90" y="204" fill="#000"/><rect width="6" height="6" x="120" y="204" fill="#000"/><rect width="6" height="6" x="126" y="204" fill="#000"/><rect width="6" height="6" x="138" y="204" fill="#000"/><rect width="6" height="6" x="150" y="204" fill="#000"/><rect width="6" height="6" x="174" y="204" fill="#000"/><rect width="6" height="6" x="192" y="204" fill="#000"/><rect width="6" height="6" x="204" y="204" fill="#000"/><rect width="6" height="6" x="216" y="204" fill="#000"/><rect width="6" height="6" x="228" y="204" fill="#000"/><rect width="6" height="6" x="0" y="210" fill="#000"/><rect width="6" height="6" x="36" y="210" fill="#000"/><rect width="6" height="6" x="66" y="210" fill="#000"/><rect width="6" height="6" x="84" y="210" fill="#000"/><rect width="6" height="6" x="102" y="210" fill="#000"/><rect width="6" height="6" x="108" y="210" fill="#000"/><rect width="6" height="6" x="120" y="210" fill="#000"/><rect width="6" height="6" x="126" y="210" fill="#000"/><rect width="6" height="6" x="132" y="210" fill="#000"/><rect width="6" height="6" x="138" y="210" fill="#000"/><rect width="6" height="6" x="144" y="210" fill="#000"/><rect width="6" height="6" x="162" y="210" fill="#000"/><rect width="6" height="6" x="168" y="210" fill="#000"/><rect width="6" height="6" x="174" y="210" fill="#000"/><rect width="6" height="6" x="192" y="210" fill="#000"/><rect width="6" height="6" x="216" y="210" fill="#000"/><rect width="6" height="6" x="228" y="210" fill="#000"/><rect width="6" height="6" x="234" y="210" fill="#000"/><rect width="6" height="6" x="0" y="216" fill="#000"/><rect width="6" height="6" x="12" y="216" fill="#000"/><rect width="6" height="6" x="18" y="216" fill="#000"/><rect width="6" height="6" x="24" y="216" fill="#000"/><rect width="6" height="6" x="36" y="216" fill="#000"/><rect width="6" height="6" x="60" y="216" fill="#000"/><rect width="6" height="6" x="72" y="216" fill="#000"/><rect width="6" height="6" x="78" y="216" fill="#000"/><rect width="6" height="6" x="84" y="216" fill="#000"/><rect width="6" height="6" x="96" y="216" fill="#000"/><rect width="6" height="6" x="108" y="216" fill="#000"/><rect width="6" height="6" x="114" y="216" fill="#000"/><rect width="6" height="6" x="120" y="216" fill="#000"/><rect width="6" height="6" x="138" y="216" fill="#000"/><rect width="6" height="6" x="150" y="216" fill="#000"/><rect width="6" height="6" x="192" y="216" fill="#000"/><rect width="6" height="6" x="198" y="216" fill="#000"/><rect width="6" height="6" x="204" y="216" fill="#000"/><rect width="6" height="6" x="210" y="216" fill="#000"/><rect width="6" height="6" x="216" y="216" fill="#000"/><rect width="6" height="6" x="240" y="216" fill="#000"/><rect width="6" height="6" x="0" y="222" fill="#000"/><rect width="6" height="6" x="12" y="222" fill="#000"/><rect width="6" height="6" x="18" y="222" fill="#000"/><rect width="6" height="6" x="24" y="222" fill="#000"/><rect width="6" height="6" x="36" y="222" fill="#000"/><rect width="6" height="6" x="48" y="222" fill="#000"/><rect width="6" height="6" x="66" y="222" fill="#000"/><rect width="6" height="6" x="72" y="222" fill="#000"/><rect width="6" height="6" x="96" y="222" fill="#000"/><rect width="6" height="6" x="132" y="222" fill="#000"/><rect width="6" height="6" x="138" y="222" fill="#000"/><rect width="6" height="6" x="156" y="222" fill="#000"/><rect width="6" height="6" x="192" y="222" fill="#000"/><rect width="6" height="6" x="198" y="222" fill="#000"/><rect width="6" height="6" x="204" y="222" fill="#000"/><rect width="6" height="6" x="216" y="222" fill="#000"/><rect width="6" height="6" x="222" y="222" fill="#000"/><rect width="6" height="6" x="228" y="222" fill="#000"/><rect width="6" height="6" x="0" y="228" fill="#000"/><rect width="6" height="6" x="12" y="228" fill="#000"/><rect width="6" height="6" x="18" y="228" fill="#000"/><rect width="6" height="6" x="24" y="228" fill="#000"/><rect width="6" height="6" x="36" y="228" fill="#000"/><rect width="6" height="6" x="54" y="228" fill="#000"/><rect width="6" height="6" x="60" y="228" fill="#000"/><rect width="6" height="6" x="66" y="228" fill="#000"/><rect width="6" height="6" x="72" y="228" fill="#000"/><rect width="6" height="6" x="84" y="228" fill="#000"/><rect width="6" height="6" x="96" y="228" fill="#000"/><rect width="6" height="6" x="102" y="228" fill="#000"/><rect width="6" height="6" x="114" y="228" fill="#000"/><rect width="6" height="6" x="126" y="228" fill="#000"/><rect width="6" height="6" x="144" y="228" fill="#000"/><rect width="6" height="6" x="150" y="228" fill="#000"/><rect width="6" height="6" x="156" y="228" fill="#000"/><rect width="6" height="6" x="216" y="228" fill="#000"/><rect width="6" height="6" x="228" y="228" fill="#000"/><rect width="6" height="6" x="240" y="228" fill="#000"/><rect width="6" height="6" x="0" y="234" fill="#000"/><rect width="6" height="6" x="36" y="234" fill="#000"/><rect width="6" height="6" x="54" y="234" fill="#000"/><rect width="6" height="6" x="60" y="234" fill="#000"/><rect width="6" height="6" x="90" y="234" fill="#000"/><rect width="6" height="6" x="96" y="234" fill="#000"/><rect width="6" height="6" x="108" y="234" fill="#000"/><rect width="6" height="6" x="114" y="234" fill="#000"/><rect width="6" height="6" x="132" y="234" fill="#000"/><rect width="6" height="6" x="144" y="234" fill="#000"/><rect width="6" height="6" x="150" y="234" fill="#000"/><rect width="6" height="6" x="156" y="234" fill="#000"/><rect width="6" height="6" x="168" y="234" fill="#000"/><rect width="6" height="6" x="174" y="234" fill="#000"/><rect width="6" height="6" x="186" y="234" fill="#000"/><rect width="6" height="6" x="192" y="234" fill="#000"/><rect width="6" height="6" x="198" y="234" fill="#000"/><rect width="6" height="6" x="210" y="234" fill="#000"/><rect width="6" height="6" x="234" y="234" fill="#000"/><rect width="6" height="6" x="0" y="240" fill="#000"/><rect width="6" height="6" x="6" y="240" fill="#000"/><rect width="6" height="6" x="12" y="240" fill="#000"/><rect width="6" height="6" x="18" y="240" fill="#000"/><rect width="6" height="6" x="24" y="240" fill="#000"/><rect width="6" height="6" x="30" y="240" fill="#000"/><rect width="6" height="6" x="36" y="240" fill="#000"/><rect width="6" height="6" x="54" y="240" fill="#000"/><rect width="6" height="6" x="84" y="240" fill="#000"/><rect width="6" height="6" x="90" y="240" fill="#000"/><rect width="6" height="6" x="96" y="240" fill="#000"/><rect width="6" height="6" x="108" y="240" fill="#000"/><rect width="6" height="6" x="126" y="240" fill="#000"/><rect width="6" height="6" x="132" y="240" fill="#000"/><rect width="6" height="6" x="138" y="240" fill="#000"/><rect width="6" height="6" x="144" y="240" fill="#000"/><rect width="6" height="6" x="150" y="240" fill="#000"/><rect width="6" height="6" x="156" y="240" fill="#000"/><rect width="6" height="6" x="162" y="240" fill="#000"/><rect width="6" height="6" x="168" y="240" fill="#000"/><rect width="6" height="6" x="174" y="240" fill="#000"/><rect width="6" height="6" x="180" y="240" fill="#000"/><rect width="6" height="6" x="186" y="240" fill="#000"/><rect width="6" height="6" x="192" y="240" fill="#000"/><rect width="6" height="6" x="210" y="240" fill="#000"/><rect width="6" height="6" x="216" y="240" fill="#000"/><rect width="6" height="6" x="234" y="240" fill="#000"/></svg>